<svg width="165" height="46" viewBox="0 0 165 46" fill="none" xmlns="http://www.w3.org/2000/svg">
<path d="M0 0H26.8957C36.9005 0 43.5549 3.30937 43.5549 9.1835C43.5549 12.0759 42.3167 14.5546 38.3704 16.6197C43.1444 18.2743 45.0248 21.2528 45.0248 24.1054C45.0248 30.0623 38.6452 33.4246 27.9055 33.4246H0V0ZM26.1541 13.6809C28.5875 13.6809 30.1931 13.35 30.1931 11.4339C30.1931 9.51775 28.6404 9.36552 26.1541 9.36552H13.7226V13.6677L26.1541 13.6809ZM26.6209 24.0591C29.0543 24.0591 30.6599 23.7282 30.6599 21.8087C30.6599 19.8893 29.0973 19.6047 26.6209 19.6047H13.7094V24.0591H26.6209Z" fill="#FE4F23"/>
<path d="M51.3151 0H65.1536L80.7765 24.5158L96.4061 0H110.245V33.4246H96.4525V18.5954L86.5106 33.4246H75.0557L65.1105 18.5954V33.4246H51.3184V0H51.3151Z" fill="#FE4F23"/>
<path d="M118.521 0H132.241V12.0296H137.286L147.794 0H164.539L149.903 16.7123L164.539 33.3783H147.794L137.332 21.3951H132.241V33.4246H118.521V0Z" fill="#FE4F23"/>
<path d="M151.628 40.7051H98.3263C97.7995 40.7051 97.2942 40.9143 96.9217 41.2867C96.5492 41.659 96.3399 42.1641 96.3399 42.6907C96.3399 43.2173 96.5492 43.7224 96.9217 44.0947C97.2942 44.4671 97.7995 44.6763 98.3263 44.6763H151.628C152.155 44.6763 152.66 44.4671 153.032 44.0947C153.405 43.7224 153.614 43.2173 153.614 42.6907C153.614 42.1641 153.405 41.659 153.032 41.2867C152.66 40.9143 152.155 40.7051 151.628 40.7051Z" fill="#FE4F23"/>
<path d="M62.9022 40.7051H13.2425C12.7157 40.7051 12.2104 40.9143 11.8379 41.2867C11.4654 41.659 11.2561 42.1641 11.2561 42.6907C11.2561 43.2173 11.4654 43.7224 11.8379 44.0947C12.2104 44.4671 12.7157 44.6763 13.2425 44.6763H62.9022C63.4291 44.6763 63.9343 44.4671 64.3068 44.0947C64.6794 43.7224 64.8886 43.2173 64.8886 42.6907C64.8886 42.1641 64.6794 41.659 64.3068 41.2867C63.9343 40.9143 63.4291 40.7051 62.9022 40.7051Z" fill="#FE4F23"/>
<path d="M73.8276 40.7046V44.6759C73.8276 45.0269 73.9672 45.3636 74.2155 45.6119C74.4638 45.8601 74.8007 45.9996 75.1519 45.9996C75.5031 45.9996 75.8399 45.8601 76.0883 45.6119C76.3366 45.3636 76.4762 45.0269 76.4762 44.6759V40.7046C76.4762 40.3535 76.3366 40.0168 76.0883 39.7686C75.8399 39.5203 75.5031 39.3809 75.1519 39.3809C74.8007 39.3809 74.4638 39.5203 74.2155 39.7686C73.9672 40.0168 73.8276 40.3535 73.8276 40.7046Z" fill="#FE4F23"/>
<path d="M161.891 40.7046V44.6759C161.891 45.0269 162.03 45.3636 162.278 45.6119C162.527 45.8601 162.864 45.9996 163.215 45.9996C163.566 45.9996 163.903 45.8601 164.151 45.6119C164.4 45.3636 164.539 45.0269 164.539 44.6759V40.7046C164.539 40.3535 164.4 40.0168 164.151 39.7686C163.903 39.5203 163.566 39.3809 163.215 39.3809C162.864 39.3809 162.527 39.5203 162.278 39.7686C162.03 40.0168 161.891 40.3535 161.891 40.7046Z" fill="#FE4F23"/>
<path d="M2.64852 40.7046V44.6759C2.64852 45.0269 2.509 45.3636 2.26065 45.6119C2.01231 45.8601 1.67548 45.9996 1.32426 45.9996C0.973044 45.9996 0.636214 45.8601 0.387867 45.6119C0.13952 45.3636 0 45.0269 0 44.6759V40.7046C0 40.3535 0.13952 40.0168 0.387867 39.7686C0.636214 39.5203 0.973044 39.3809 1.32426 39.3809C1.67548 39.3809 2.01231 39.5203 2.26065 39.7686C2.509 40.0168 2.64852 40.3535 2.64852 40.7046Z" fill="#FE4F23"/>
<path d="M85.0838 40.7046V44.6759C85.0838 45.0269 85.2233 45.3636 85.4717 45.6119C85.72 45.8601 86.0568 45.9996 86.4081 45.9996C86.7593 45.9996 87.0961 45.8601 87.3445 45.6119C87.5928 45.3636 87.7323 45.0269 87.7323 44.6759V40.7046C87.7323 40.3535 87.5928 40.0168 87.3445 39.7686C87.0961 39.5203 86.7593 39.3809 86.4081 39.3809C86.0568 39.3809 85.72 39.5203 85.4717 39.7686C85.2233 40.0168 85.0838 40.3535 85.0838 40.7046Z" fill="#FE4F23"/>
<path d="M92.0359 44.0147C92.2978 44.0147 92.5539 43.937 92.7717 43.7916C92.9894 43.6461 93.1592 43.4394 93.2594 43.1975C93.3596 42.9556 93.3858 42.6895 93.3347 42.4327C93.2836 42.1759 93.1575 41.94 92.9723 41.7549C92.7871 41.5698 92.5512 41.4437 92.2943 41.3926C92.0374 41.3415 91.7711 41.3678 91.5292 41.468C91.2872 41.5681 91.0804 41.7378 90.9349 41.9555C90.7893 42.1732 90.7117 42.4291 90.7117 42.6909C90.7117 43.042 90.8512 43.3787 91.0995 43.627C91.3479 43.8752 91.6847 44.0147 92.0359 44.0147Z" fill="#FE4F23"/>
<path d="M69.524 44.0147C69.7859 44.0147 70.042 43.937 70.2597 43.7916C70.4775 43.6461 70.6473 43.4394 70.7475 43.1975C70.8477 42.9556 70.8739 42.6895 70.8228 42.4327C70.7717 42.1759 70.6456 41.94 70.4604 41.7549C70.2752 41.5698 70.0393 41.4437 69.7824 41.3926C69.5255 41.3415 69.2592 41.3678 69.0173 41.468C68.7753 41.5681 68.5685 41.7378 68.4229 41.9555C68.2774 42.1732 68.1998 42.4291 68.1998 42.6909C68.1998 43.042 68.3393 43.3787 68.5876 43.627C68.836 43.8752 69.1728 44.0147 69.524 44.0147Z" fill="#FE4F23"/>
<path d="M157.918 44.0147C158.18 44.0147 158.436 43.937 158.654 43.7916C158.872 43.6461 159.041 43.4394 159.142 43.1975C159.242 42.9556 159.268 42.6895 159.217 42.4327C159.166 42.1759 159.04 41.94 158.855 41.7549C158.669 41.5698 158.433 41.4437 158.176 41.3926C157.92 41.3415 157.653 41.3678 157.411 41.468C157.169 41.5681 156.963 41.7378 156.817 41.9555C156.672 42.1732 156.594 42.4291 156.594 42.6909C156.594 43.042 156.733 43.3787 156.982 43.627C157.23 43.8752 157.567 44.0147 157.918 44.0147Z" fill="#FE4F23"/>
<path d="M6.9525 44.0147C6.69058 44.0147 6.43455 43.937 6.21678 43.7916C5.999 43.6461 5.82927 43.4394 5.72904 43.1975C5.62881 42.9556 5.60258 42.6895 5.65368 42.4327C5.70478 42.1759 5.8309 41.94 6.0161 41.7549C6.2013 41.5698 6.43726 41.4437 6.69415 41.3926C6.95103 41.3415 7.21729 41.3678 7.45927 41.468C7.70124 41.5681 7.90807 41.7378 8.05358 41.9555C8.19909 42.1732 8.27676 42.4291 8.27676 42.6909C8.27676 43.042 8.13724 43.3787 7.88889 43.627C7.64054 43.8752 7.30371 44.0147 6.9525 44.0147Z" fill="#FE4F23"/>
<path d="M80.7798 44.0147C81.0417 44.0147 81.2978 43.937 81.5155 43.7916C81.7333 43.6461 81.9031 43.4394 82.0033 43.1975C82.1035 42.9556 82.1297 42.6895 82.0786 42.4327C82.0275 42.1759 81.9014 41.94 81.7162 41.7549C81.531 41.5698 81.2951 41.4437 81.0382 41.3926C80.7813 41.3415 80.515 41.3678 80.2731 41.468C80.0311 41.5681 79.8243 41.7378 79.6787 41.9555C79.5332 42.1732 79.4556 42.4291 79.4556 42.6909C79.4556 43.042 79.5951 43.3787 79.8434 43.627C80.0918 43.8752 80.4286 44.0147 80.7798 44.0147Z" fill="#FE4F23"/>
</svg>
