<svg xmlns="http://www.w3.org/2000/svg" width="28" height="28" viewBox="0 0 28 28">
    <path
        d="M15.2944 5.66981C15.1715 5.79285 15.1025 5.95965 15.1025 6.13356C15.1025 6.30746 15.1715 6.47426 15.2944 6.59731L22.0483 13.3523H4.38318C4.20913 13.3523 4.04221 13.4214 3.91914 13.5445C3.79607 13.6676 3.72693 13.8345 3.72693 14.0086C3.72693 14.1826 3.79607 14.3495 3.91914 14.4726C4.04221 14.5957 4.20913 14.6648 4.38318 14.6648H22.0483L15.2944 21.4198C15.1785 21.5442 15.1154 21.7088 15.1184 21.8788C15.1214 22.0488 15.1903 22.211 15.3105 22.3312C15.4307 22.4515 15.593 22.5203 15.763 22.5233C15.933 22.5263 16.0975 22.4632 16.2219 22.3473L24.0969 14.4723C24.2198 14.3493 24.2888 14.1825 24.2888 14.0086C24.2888 13.8347 24.2198 13.6679 24.0969 13.5448L16.2219 5.66981C16.0989 5.54691 15.9321 5.47788 15.7582 5.47788C15.5843 5.47788 15.4175 5.54691 15.2944 5.66981Z" />
</svg>