<svg xmlns="http://www.w3.org/2000/svg" width="21" height="21" viewBox="0 0 21 21">
    <path
        d="M11.4708 4.25236C11.3786 4.34464 11.3269 4.46974 11.3269 4.60017C11.3269 4.7306 11.3786 4.8557 11.4708 4.94798L16.5362 10.0142H3.28736C3.15682 10.0142 3.03163 10.0661 2.93933 10.1584C2.84703 10.2507 2.79517 10.3759 2.79517 10.5064C2.79517 10.637 2.84703 10.7621 2.93933 10.8544C3.03163 10.9468 3.15682 10.9986 3.28736 10.9986H16.5362L11.4708 16.0649C11.3839 16.1582 11.3365 16.2816 11.3388 16.4091C11.341 16.5366 11.3927 16.6582 11.4829 16.7484C11.573 16.8386 11.6947 16.8903 11.8222 16.8925C11.9497 16.8948 12.0731 16.8474 12.1664 16.7605L18.0727 10.8542C18.1648 10.7619 18.2166 10.6368 18.2166 10.5064C18.2166 10.376 18.1648 10.2509 18.0727 10.1586L12.1664 4.25236C12.0741 4.16018 11.949 4.10841 11.8186 4.10841C11.6882 4.10841 11.5631 4.16018 11.4708 4.25236Z" />
</svg>