<svg xmlns="http://www.w3.org/2000/svg" width="50" height="50" viewBox="0 0 50 50">
    <path
        d="M25.6844 16.5445C25.5571 16.6719 25.4856 16.8446 25.4856 17.0248C25.4856 17.2049 25.5571 17.3776 25.6844 17.5051L32.6795 24.5013H14.3834C14.2031 24.5013 14.0303 24.5729 13.9028 24.7004C13.7753 24.8279 13.7037 25.0008 13.7037 25.181C13.7037 25.3613 13.7753 25.5342 13.9028 25.6616C14.0303 25.7891 14.2031 25.8607 14.3834 25.8607H32.6795L25.6844 32.857C25.5643 32.9858 25.4989 33.1562 25.502 33.3323C25.5051 33.5084 25.5765 33.6764 25.701 33.8009C25.8255 33.9255 25.9935 33.9968 26.1696 33.9999C26.3457 34.003 26.5161 33.9376 26.645 33.8176L34.8012 25.6613C34.9285 25.5339 35 25.3611 35 25.181C35 25.0009 34.9285 24.8281 34.8012 24.7007L26.645 16.5445C26.5175 16.4172 26.3448 16.3457 26.1647 16.3457C25.9845 16.3457 25.8118 16.4172 25.6844 16.5445Z" />
</svg>