<svg xmlns="http://www.w3.org/2000/svg" width="50" height="50" viewBox="0 0 50 50">
    <path
        d="M24.3156 16.5445C24.4429 16.6719 24.5144 16.8446 24.5144 17.0248C24.5144 17.2049 24.4429 17.3776 24.3156 17.5051L17.3205 24.5013H35.6166C35.7969 24.5013 35.9697 24.5729 36.0972 24.7004C36.2247 24.8279 36.2963 25.0008 36.2963 25.181C36.2963 25.3613 36.2247 25.5342 36.0972 25.6616C35.9697 25.7891 35.7969 25.8607 35.6166 25.8607H17.3205L24.3156 32.857C24.4357 32.9858 24.5011 33.1562 24.498 33.3323C24.4949 33.5084 24.4235 33.6764 24.299 33.8009C24.1745 33.9255 24.0065 33.9968 23.8304 33.9999C23.6543 34.003 23.4839 33.9376 23.355 33.8176L15.1988 25.6613C15.0715 25.5339 15 25.3611 15 25.181C15 25.0009 15.0715 24.8281 15.1988 24.7007L23.355 16.5445C23.4825 16.4172 23.6552 16.3457 23.8353 16.3457C24.0155 16.3457 24.1882 16.4172 24.3156 16.5445Z" />
</svg>