<svg xmlns="http://www.w3.org/2000/svg" width="57" height="59" viewBox="0 0 57 59" fill="none">
    <path
        d="M28.5006 3.42188C14.6137 3.42188 3.30664 15.1153 3.30664 29.4999C3.30664 43.8741 14.6137 55.5779 28.5006 55.5779C42.3876 55.5779 53.6946 43.8845 53.6946 29.4999C53.6946 15.1153 42.3977 3.42188 28.5006 3.42188ZM39.979 11.746L39.9286 11.5895C39.9286 11.5791 39.9186 11.5686 39.9186 11.5582C39.8682 11.4122 39.7674 11.2974 39.6364 11.2244C39.5558 11.1827 39.4953 11.141 39.4651 11.0888C39.4147 11.0158 39.3542 10.9532 39.3038 10.8802C39.0821 10.5985 38.8604 10.3065 38.7092 10.0248C38.6387 9.88922 38.5279 9.78491 38.3868 9.74318C38.286 9.71189 38.1751 9.67016 38.034 9.69103C37.6108 9.74318 37.1069 9.74318 36.5023 9.70146C36.2604 9.69103 36.0387 9.8162 35.9379 10.0457C35.8875 10.15 35.8271 10.2439 35.7464 10.3169C35.6255 10.4316 35.565 10.5881 35.555 10.755C35.555 10.9219 35.6154 11.0784 35.7263 11.1931L36.1193 11.5895C36.1294 11.5999 36.1294 11.5999 36.1395 11.6104L36.603 12.1841C36.6736 12.2675 36.6635 12.3614 36.6635 12.4031C36.6534 12.4449 36.6232 12.5387 36.5325 12.5909L36.4418 12.6431C36.3813 12.6743 36.3108 12.6848 36.2503 12.6639L35.5449 12.4449C35.5348 12.4449 35.5247 12.4344 35.5147 12.4344L34.4968 11.9755C34.396 11.9337 34.3356 11.8294 34.3356 11.7147L34.3456 11.5895C34.3759 10.9741 34.0232 10.4003 33.4689 10.1709L32.8139 9.88922C32.4309 9.72232 31.9976 9.74318 31.6247 9.94138C31.2518 10.1396 30.9898 10.4942 30.8991 10.9115L30.5363 12.5387C30.5363 12.5596 30.5262 12.5805 30.5061 12.6118C30.4053 12.7787 30.3952 12.9873 30.4759 13.1646L30.496 13.2063C30.5061 13.2376 30.5162 13.2585 30.5363 13.2898C30.5565 13.3419 30.5867 13.4045 30.6169 13.4776C30.7883 13.9157 30.9596 14.2912 31.1914 14.5207C31.3123 14.6458 31.4836 14.698 31.6449 14.6876C31.7154 14.698 31.7859 14.7189 31.8666 14.7084C31.9169 14.7084 31.9673 14.7084 32.0076 14.7084C32.058 14.7084 32.0983 14.7189 32.1487 14.7189C32.4309 14.7293 32.6828 14.5102 32.7332 14.2182L32.7534 14.1243C32.7735 13.9783 32.9046 13.8844 33.0456 13.9052L34.3658 14.1034C34.396 14.1034 34.4263 14.1243 34.4565 14.1347L35.172 14.5728C35.3937 14.7084 35.6356 14.771 35.8875 14.771H36.8449C36.9457 14.771 37.0263 14.8232 37.0767 14.9171L37.9534 16.7321C38.024 16.8677 38.1046 16.9929 38.2054 17.1076L40.8961 19.9449C40.9566 20.0075 40.9767 20.0909 40.9666 20.1952C40.9465 20.3308 40.8155 20.4247 40.6845 20.4143L39.2434 20.2161C38.9612 20.1744 38.679 20.2265 38.417 20.3621L34.4867 22.4171C34.3154 22.511 34.1643 22.6361 34.0433 22.7822L31.1611 26.3705C31.02 26.5374 30.9193 26.746 30.8689 26.9547L30.6673 27.81C30.6371 27.9248 30.5363 28.0082 30.4154 28.0082H30.1433C30.103 28.0082 30.0727 27.9978 30.0324 27.9874L28.4805 27.2467C28.0975 27.0694 27.6642 27.0694 27.2812 27.2572L26.2332 27.7683C25.6285 28.0604 25.306 28.7593 25.4572 29.4269L25.7998 30.9394C25.8502 31.1584 26.0115 31.3253 26.2231 31.3879C26.4347 31.4401 26.6564 31.3671 26.7975 31.2002L27.4425 30.4387C27.4929 30.3865 27.5533 30.3448 27.6239 30.3448L27.8859 30.3344C27.9867 30.3344 28.0471 30.3865 28.0774 30.4178C28.1076 30.4491 28.158 30.5221 28.1479 30.616L28.1278 30.9602C28.0875 31.6487 28.5107 32.2641 29.1456 32.4519L29.5487 32.5771C29.5991 32.5875 29.6394 32.6188 29.6696 32.6501L30.4456 33.5472C30.8084 33.9644 31.3627 34.1313 31.8867 33.9853L33.2976 33.5785C33.3379 33.568 33.3681 33.568 33.4084 33.568L35.5751 33.9227C35.5852 33.9227 35.5953 33.9227 35.5953 33.9331L38.2558 34.6738C38.3263 34.6946 38.3868 34.705 38.4573 34.7155L39.455 34.8407C39.5155 34.8511 39.5759 34.8824 39.6162 34.9345L41.6519 37.3337C41.7527 37.4485 41.8635 37.5528 41.9945 37.6258L45.7031 39.8894C45.824 39.9624 45.8643 40.1188 45.8039 40.244L43.3853 45.0215C43.355 45.0737 43.3147 45.1154 43.2643 45.1362L40.7449 46.3463C40.4023 46.5132 40.1403 46.8052 40.0093 47.1703L39.0519 49.8616C39.0317 49.9137 39.0015 49.9555 38.9511 49.9868L34.9805 52.7406C34.6984 52.9388 34.4968 53.2309 34.4061 53.5647C34.4061 53.5751 34.396 53.5959 34.396 53.6064C33.6705 53.7941 32.9348 53.9506 32.179 54.0758L32.058 52.605C32.058 52.5528 32.058 52.5007 32.0681 52.4485C33.2371 47.7023 33.2371 47.5771 33.2371 47.4728C33.2371 47.3685 33.2371 47.2225 32.0177 42.9561C32.0076 42.9144 31.9875 42.8831 31.9673 42.8414L30.3348 39.7016C30.2642 39.566 30.2642 39.3991 30.3247 39.2635L31.3022 37.1564C31.5038 36.7078 31.5138 36.1967 31.3224 35.7482C31.1309 35.2996 30.758 34.9554 30.3045 34.8198L29.982 34.7155C29.9115 34.6946 29.841 34.6529 29.7906 34.5903L28.2386 32.9839C28.0169 32.7544 27.7448 32.5979 27.4425 32.5249L23.9153 31.7113C23.7742 31.68 23.6634 31.5861 23.5928 31.4505L22.3735 28.8114C22.2727 28.6028 22.0711 28.4672 21.8494 28.4672C21.8091 28.4672 21.7688 28.4672 21.7184 28.4776C21.4564 28.5402 21.2649 28.7801 21.2649 29.0618V29.9693L18.161 25.609C18.1006 25.5256 18.0703 25.4317 18.0703 25.3274V21.6973C18.0703 21.3844 17.9897 21.0819 17.8285 20.8107L15.6215 17.1076C15.2688 16.513 14.6137 16.2105 13.9486 16.3357L10.4617 17.0033C10.4315 17.0033 10.4113 17.0137 10.3811 17.0137H7.86172C7.81133 17.0137 7.77102 17.0033 7.73071 16.9929C8.8594 14.9901 10.2501 13.1646 11.8524 11.5686L12.185 11.4643C12.2555 11.4435 12.3261 11.4226 12.3966 11.4122L16.4881 10.828C16.8106 10.7863 17.123 10.6716 17.4052 10.5151L18.4432 9.92051C18.7959 9.72232 19.199 9.67016 19.582 9.78491L20.8114 10.15C21.1037 10.2334 21.3959 10.2752 21.6983 10.2543L24.0967 10.1083C24.9533 10.0561 25.7293 9.58671 26.1828 8.83567C26.5053 8.31411 27.0999 8.03246 27.6944 8.13678L27.9867 8.18893C28.2084 8.23066 28.4402 8.23066 28.6619 8.2098L32.2294 7.86557C32.8945 7.80298 33.5092 7.47961 33.9526 6.96848L34.5069 6.33218C34.5875 6.2383 34.6883 6.15485 34.7891 6.08183L35.4139 5.65415C40.1201 7.12495 44.2217 10.0561 47.2349 13.9261L45.5116 14.0826C45.0682 14.1243 44.6651 14.3746 44.4333 14.771L43.7279 15.9393L43.486 15.8559C43.4457 15.8454 43.4155 15.8246 43.3853 15.8037L42.2666 14.7606C42.1356 14.6458 41.9643 14.5833 41.8031 14.6146C41.5814 14.6458 41.3798 14.6041 41.2286 14.5102C40.7348 14.1869 40.11 13.6132 39.9387 12.6848C39.8984 12.4657 39.9085 12.2675 39.9589 12.0798C40.0193 11.9859 40.0193 11.8607 39.979 11.746ZM33.6301 12.81L33.1968 12.7474C32.6325 12.6639 32.1084 12.9247 31.8162 13.3732C31.7557 13.2481 31.7053 13.1125 31.6751 13.029C31.665 12.9873 31.6449 12.956 31.6348 12.9247C31.6449 12.8934 31.6549 12.8517 31.665 12.8204L32.0278 11.1931C32.048 11.0888 32.1185 11.0367 32.1588 11.0158C32.1991 10.9949 32.2797 10.9636 32.3704 11.0054L33.0255 11.287C33.1263 11.3287 33.1867 11.433 33.1867 11.5478L33.1766 11.673C33.1565 12.1006 33.3278 12.5179 33.6301 12.81ZM33.9627 5.2682C33.8619 5.35165 33.7611 5.44553 33.6704 5.54984L33.1162 6.18614C32.8642 6.47822 32.5216 6.65555 32.1387 6.68684L28.5712 7.03107C28.4402 7.0415 28.3192 7.0415 28.1882 7.02064L27.896 6.96848C26.8479 6.79115 25.7898 7.27099 25.2254 8.2098C24.9634 8.62704 24.5301 8.89826 24.0463 8.92955L21.6479 9.07559C21.4766 9.08602 21.3052 9.06516 21.144 9.013L19.9145 8.64791C19.2292 8.43928 18.5137 8.52273 17.899 8.87739L16.8509 9.47197C16.6897 9.56585 16.5184 9.62844 16.337 9.6493L13.5354 10.0457C17.6471 6.65555 22.8471 4.62146 28.5006 4.62146C30.3751 4.62146 32.2092 4.85095 33.9627 5.2682ZM4.46556 29.4999C4.46556 25.3691 5.44309 21.4783 7.16636 18.0464C7.38807 18.1507 7.61985 18.2133 7.86172 18.2133H10.371C10.4617 18.2133 10.5625 18.2029 10.6532 18.182L14.2005 17.5249C14.392 17.4936 14.5734 17.577 14.6742 17.7439L16.8812 21.447C16.9215 21.52 16.9517 21.6139 16.9517 21.6973V25.3274C16.9517 25.6925 17.0626 26.0367 17.2641 26.3288L20.7812 31.2732C20.8921 31.4296 21.0634 31.5131 21.2448 31.5131H21.8797C22.0409 31.5131 22.182 31.4505 22.2828 31.3358L22.5649 31.9616C22.7766 32.431 23.1897 32.7648 23.6735 32.8796L27.2006 33.6932C27.2913 33.7141 27.3619 33.7558 27.4324 33.8184L28.9844 35.4248C29.1758 35.623 29.4076 35.769 29.6696 35.8525L29.9921 35.9568C30.1735 36.0089 30.2541 36.1446 30.2844 36.228C30.3146 36.301 30.3549 36.4575 30.2743 36.6348L29.2968 38.7419C29.0751 39.2218 29.0851 39.7955 29.327 40.2649L30.9394 43.3525C31.4332 45.0945 31.9774 47.0243 32.0883 47.4728C31.9976 47.9005 31.5642 49.7155 30.9596 52.146C30.9193 52.3233 30.8991 52.5111 30.9193 52.6989L31.0503 54.2218C30.2138 54.3157 29.3572 54.3574 28.5006 54.3574C15.2486 54.3783 4.46556 43.2169 4.46556 29.4999ZM37.117 52.7197L39.6263 50.9777C39.8783 50.8004 40.0596 50.5605 40.1705 50.2684L41.1279 47.5771C41.148 47.5146 41.1984 47.4624 41.2589 47.4311L43.7783 46.2211C44.0605 46.0855 44.2922 45.856 44.4333 45.5744L46.852 40.7969C47.2047 40.1084 46.9628 39.253 46.3178 38.8567L42.5992 36.5931C42.579 36.5827 42.5589 36.5618 42.5387 36.5409L40.5031 34.1418C40.2713 33.8705 39.9488 33.6932 39.6062 33.6515L38.6085 33.5263C38.5984 33.5263 38.5883 33.5263 38.5682 33.5159L35.9077 32.7753C35.8573 32.7648 35.8069 32.7544 35.7565 32.744L33.5999 32.3997C33.3984 32.3685 33.1968 32.3789 33.0053 32.431L31.5945 32.8379C31.5038 32.8692 31.403 32.8379 31.3324 32.7544L30.5565 31.8573C30.3751 31.6487 30.1534 31.5027 29.9014 31.4296L29.4983 31.3045C29.3875 31.2732 29.3069 31.1584 29.3169 31.0333L29.3371 30.689C29.3572 30.2822 29.2162 29.8754 28.934 29.5833C28.6619 29.2913 28.2689 29.1244 27.8758 29.1452L27.6138 29.1556C27.2712 29.1661 26.9487 29.3121 26.6968 29.552L26.6061 29.1661C26.5758 29.0409 26.6363 28.9157 26.7471 28.8636L27.7952 28.3524C27.8658 28.3211 27.9464 28.3211 28.0169 28.3524L29.5588 29.0931C29.7503 29.1869 29.9417 29.2287 30.1534 29.2287H30.4255C31.0805 29.2287 31.6449 28.7697 31.796 28.1125L31.9976 27.2572C32.0076 27.2154 32.0278 27.1841 32.048 27.1529L34.91 23.5958C34.9302 23.5645 34.9604 23.5437 34.9906 23.5332L38.9209 21.4783C38.9713 21.4574 39.0217 21.447 39.072 21.447L40.5131 21.6452C41.2589 21.7495 41.9542 21.2279 42.0953 20.4456C42.1759 19.9762 42.0349 19.4964 41.7124 19.1521L39.0217 16.3148C39.0015 16.294 38.9914 16.2731 38.9713 16.2523L38.0945 14.4372C37.893 14.02 37.5201 13.7279 37.0767 13.6549C37.4496 13.4463 37.7015 13.0812 37.7821 12.6535C37.8627 12.2154 37.7519 11.7668 37.4697 11.4226L37.0868 10.9532C37.3589 10.9636 37.6108 10.9532 37.8527 10.9323C38.024 11.1931 38.2054 11.433 38.3868 11.6625C38.4372 11.7251 38.4875 11.7981 38.548 11.8607C38.6186 11.9546 38.6992 12.0276 38.7798 12.1006C38.7395 12.3823 38.7395 12.6743 38.7999 12.9664C39.0015 14.0304 39.6263 14.9379 40.6139 15.5742C40.9162 15.7724 41.2992 15.8663 41.6721 15.8767L42.5992 16.7425C42.7504 16.8781 42.9318 16.9929 43.1232 17.0555L43.7984 17.2745C44.0504 17.358 44.3225 17.2536 44.4636 17.0242L45.4008 15.4595C45.4411 15.3865 45.5116 15.3447 45.5923 15.3343L48.0411 15.1153C50.8427 19.1834 52.4954 24.1591 52.4954 29.5312C52.5357 40.0771 46.1264 49.1314 37.117 52.7197Z"
        fill="#FE4F23" />
</svg>