<svg width="1440" height="519" viewBox="0 0 1440 519" fill="none" xmlns="http://www.w3.org/2000/svg">
    <path
        d="M667.368 213H654.718V196.5H613.028V181.87L648.228 138.2H667.368V184.84H677.488V196.5H667.368V213ZM625.018 184.84H654.718V148.65L625.018 184.84ZM719.423 214.1C708.643 214.1 700.539 210.837 695.113 204.31C689.686 197.783 686.973 188.213 686.973 175.6C686.973 163.207 689.686 153.71 695.113 147.11C700.539 140.437 708.643 137.1 719.423 137.1C730.276 137.1 738.379 140.437 743.733 147.11C749.159 153.71 751.873 163.207 751.873 175.6C751.873 188.213 749.159 197.783 743.733 204.31C738.379 210.837 730.276 214.1 719.423 214.1ZM719.423 202C725.729 202 730.386 199.837 733.393 195.51C736.473 191.11 738.013 184.473 738.013 175.6C738.013 166.653 736.473 160.017 733.393 155.69C730.386 151.363 725.729 149.2 719.423 149.2C713.189 149.2 708.533 151.363 705.453 155.69C702.373 160.017 700.833 166.653 700.833 175.6C700.833 184.473 702.373 191.11 705.453 195.51C708.533 199.837 713.189 202 719.423 202ZM815.717 213H803.067V196.5H761.377V181.87L796.577 138.2H815.717V184.84H825.837V196.5H815.717V213ZM773.367 184.84H803.067V148.65L773.367 184.84Z"
        fill="#52686A" />
    <path
        d="M308.074 204.761C268.5 214.717 181.487 260.824 135.417 206.061C47.9231 102.058 28.744 -48.2222 -207.133 157.939"
        stroke="#52686A" stroke-width="7" />
    <path
        d="M330.22 222.622C327.443 223.214 324.576 223.253 321.783 222.737C318.99 222.221 316.327 221.159 313.944 219.614C311.561 218.068 309.507 216.069 307.897 213.729C306.287 211.389 305.154 208.755 304.562 205.978C303.97 203.2 303.931 200.333 304.447 197.54C304.963 194.748 306.025 192.084 307.57 189.702C309.116 187.319 311.115 185.264 313.455 183.654C315.795 182.045 318.429 180.911 321.206 180.32L325.713 201.471L330.22 222.622Z"
        fill="#52686A" />
    <path
        d="M321.661 183.806C316.458 158.375 332.856 133.542 358.286 128.339L408.389 118.088C414.341 116.87 420.153 120.708 421.371 126.66L442.997 232.359C444.214 238.311 440.377 244.123 434.425 245.341L383.342 255.792C358.453 260.885 334.148 244.836 329.056 219.946L321.661 183.806Z"
        fill="#52686A" />
    <path d="M1149.73 226.288C1309 325.287 1343.5 157.287 1391 369.787C1438.5 582.287 1911.5 454.787 1989.73 217.787"
        stroke="#52686A" stroke-width="7" />
    <path
        d="M1134.64 248.194C1137.52 248.731 1140.47 248.695 1143.34 248.09C1146.2 247.485 1148.92 246.322 1151.33 244.666C1153.74 243.011 1155.81 240.897 1157.41 238.444C1159 235.991 1160.1 233.248 1160.64 230.371C1161.17 227.493 1161.14 224.539 1160.53 221.675C1159.93 218.811 1158.77 216.095 1157.11 213.681C1155.46 211.267 1153.34 209.202 1150.89 207.606C1148.44 206.009 1145.69 204.91 1142.81 204.374L1138.73 226.284L1134.64 248.194Z"
        fill="#52686A" />
    <path
        d="M1142.01 215.649C1147.29 185.977 1127.52 157.64 1097.85 152.355L1059.13 145.458C1053.15 144.392 1047.44 148.377 1046.37 154.358L1027.66 259.424C1026.59 265.405 1030.58 271.118 1036.56 272.183L1075.28 279.08C1104.95 284.365 1133.29 264.596 1138.58 234.924L1142.01 215.649Z"
        fill="#52686A" />
    <rect width="20.8046" height="64.0861" rx="10.4023"
        transform="matrix(-0.197865 0.980229 0.980229 0.197865 988.116 216.123)" fill="#52686A" />
    <rect width="20.8046" height="64.0861" rx="10.4023"
        transform="matrix(-0.197865 0.980229 0.980229 0.197865 997.847 159.287)" fill="#52686A" />
</svg>