<svg width="82" height="27" viewBox="0 0 82 27" fill="none" xmlns="http://www.w3.org/2000/svg">
<path d="M7.65746 18.2724C8.02397 17.464 8.20722 16.5999 8.25958 15.7078C8.31194 15.0667 8.2334 14.4255 8.10251 13.8123C7.89307 12.7808 7.52656 11.7773 7.00297 10.8853C6.68882 10.3278 6.34849 9.82598 5.9558 9.35209C5.48457 8.79457 4.96099 8.32068 4.35886 7.93041C3.78292 7.56802 3.15461 7.34501 2.42159 7.42864C2.29069 7.48439 2.10744 7.56802 1.95036 7.62377C1.32206 8.01404 0.981725 8.59944 0.79847 9.29634C0.615215 9.43572 0.431959 9.54722 0.248704 9.6866C0.170166 9.82598 0.0916277 9.99324 0.039269 10.1047C-0.0130897 10.3278 -0.0130897 10.495 0.039269 10.6901C0.248704 11.2755 0.40578 11.8888 0.641394 12.4463C1.0079 13.2547 1.37442 14.0353 1.76711 14.8437C2.13362 15.6242 2.57867 16.3769 3.04989 17.1016C3.39023 17.6313 3.78292 18.1052 4.20179 18.5512C4.64683 19.0251 5.17042 19.3875 5.79873 19.5826C5.92962 19.5826 6.11288 19.5826 6.26995 19.5826C6.42703 19.5269 6.58411 19.4711 6.74118 19.3875C7.21241 19.1087 7.4742 18.7185 7.65746 18.2724ZM5.24896 17.464C5.0657 17.241 4.88245 16.9901 4.72537 16.7393C4.4374 16.2932 4.14943 15.8193 3.91381 15.3176C3.28551 14.0631 2.73574 12.7808 2.26451 11.4707C2.1598 11.1919 2.10744 10.9132 2.0289 10.6623C1.97654 10.4671 2.00272 10.272 2.05508 10.049C2.08126 9.82598 2.13362 9.60298 2.18598 9.37997C2.23833 9.21271 2.31687 9.07333 2.44777 8.96183C2.57867 8.82245 2.73574 8.79457 2.919 8.82245C2.97136 8.82245 3.04989 8.85032 3.12843 8.8782C3.5473 9.04545 3.93999 9.26846 4.28032 9.60298C5.37986 10.6065 6.16524 11.8609 6.61028 13.3384C6.74118 13.7565 6.8459 14.1747 6.87208 14.5928C6.92444 14.9552 7.00297 15.2897 6.95062 15.6521C6.89826 16.1817 6.81972 16.7114 6.66264 17.2131C6.58411 17.4362 6.45321 17.6592 6.34849 17.8822C6.29613 17.9937 6.19142 18.0773 6.03434 18.0773C5.72019 17.9937 5.48457 17.7428 5.24896 17.464Z" fill="#A6AFC1"/>
<path d="M11.4571 25.353C11.5095 25.1857 11.5619 24.9906 11.6142 24.7676C11.6142 24.2379 11.6404 23.7083 11.6404 23.1786C11.6404 21.9242 11.6404 20.6419 11.6666 19.3875C11.6666 19.1923 11.6404 18.9693 11.6666 18.7742C11.7451 18.3561 11.7451 17.91 11.7451 17.4919C11.7713 16.7114 11.7713 15.9308 11.7975 15.1224C11.7975 14.9552 11.7713 14.7879 11.7975 14.5928C11.9284 13.9516 11.876 13.2826 11.9284 12.6415C11.9284 12.4185 11.9022 12.2233 11.9546 12.0282C12.0593 11.4149 12.0331 10.8016 12.0854 10.2162C12.0854 10.1326 12.1116 10.0769 12.1378 9.96537C12.1902 10.049 12.2687 10.0769 12.2687 10.1326C12.3996 10.6623 12.5043 11.164 12.609 11.6937C12.6876 12.2233 12.7923 12.7251 12.897 13.2547C13.0017 13.7844 13.0803 14.2862 13.1588 14.8158C13.2112 15.1224 13.2897 15.4012 13.3421 15.7078C13.4206 16.349 13.5515 16.9623 13.6824 17.5755C13.8395 18.4397 13.9965 19.3039 14.1798 20.168C14.4154 21.3946 14.651 22.5932 14.939 23.7919C15.0699 24.433 15.227 25.0742 15.4626 25.6875C15.5935 25.9662 15.6982 26.245 15.8553 26.4959C16.0909 26.8025 16.3789 27.0255 16.7716 26.9976C16.8763 26.9976 16.9548 26.9698 17.0333 26.9698C17.3999 26.8304 17.6616 26.5795 17.8711 26.2729C18.0543 25.9941 18.2376 25.7153 18.3685 25.4366C18.735 24.6561 18.9968 23.8477 19.2062 23.0114C19.5204 21.6733 19.7298 20.5304 19.9393 19.1366C19.9916 18.8021 20.0178 18.4397 20.0963 18.1052C20.201 17.6034 20.2272 17.1016 20.3319 16.5999C20.4105 16.2654 20.4367 15.903 20.489 15.5685C20.5152 15.0667 20.6461 14.5649 20.6723 14.0631C20.8032 13.7286 20.7508 13.3384 20.8293 13.0039C20.9079 12.753 20.9079 12.5021 20.9341 12.2512C20.9602 11.9724 21.0126 11.6937 21.065 11.4428C21.1173 10.9689 21.1697 10.4671 21.2482 10.0211C21.3006 9.77023 21.3268 9.51935 21.3529 9.26846C21.3791 9.01758 21.4577 8.76669 21.4838 8.51581C21.51 8.04192 21.6671 7.56802 21.6671 7.09413C21.7718 6.75962 21.7456 6.4251 21.8242 6.11847C21.8765 5.78395 21.9027 5.44944 21.9551 5.1428C21.9551 5.08705 21.9551 5.0313 21.9812 4.97555C22.0598 4.50165 22.1383 3.99988 22.1907 3.49811C22.2692 3.0521 22.3478 2.60608 22.3739 2.13219C22.5048 1.74192 22.4786 1.35166 22.531 0.933515C22.531 0.822011 22.531 0.68263 22.5048 0.54325C22.4786 0.320243 22.3216 0.152985 22.1121 0.0414805C21.8765 -0.0421466 21.5362 -0.0142709 21.3529 0.26449C21.3006 0.320243 21.2744 0.40387 21.1959 0.515374C21.1959 1.12865 21.065 1.7698 21.065 2.41095C21.065 2.74546 21.065 3.07997 21.0126 3.41449C20.9602 3.72112 20.9341 4.05564 20.9079 4.39015C20.9079 4.50165 20.9079 4.64103 20.8817 4.75254C20.777 5.11493 20.777 5.47732 20.7508 5.81183C20.7508 5.95121 20.7508 6.06271 20.7246 6.20209C20.6461 6.4251 20.6461 6.64811 20.6199 6.87112C20.6199 7.0105 20.6199 7.122 20.5937 7.26139C20.5152 7.51227 20.489 7.79103 20.489 8.06979C20.4628 8.20917 20.4628 8.32068 20.4367 8.46006C20.3581 8.71094 20.3581 8.96183 20.3319 9.21271C20.3319 9.32422 20.3058 9.4636 20.2796 9.5751C20.201 9.82598 20.2272 10.0769 20.1749 10.3278C20.1487 10.6065 20.0963 10.8853 20.0701 11.164C20.0178 11.6658 19.8869 12.1397 19.8869 12.6693C19.756 13.2547 19.7036 13.868 19.6251 14.4534C19.5466 14.8716 19.468 15.2897 19.4418 15.7357C19.3109 16.2096 19.3371 16.7393 19.2324 17.241C19.1277 17.6313 19.1277 18.0773 19.0492 18.4954C18.9706 18.8857 18.9183 19.2481 18.8659 19.6105C18.7874 20.0008 18.7088 20.3631 18.6565 20.7255C18.5256 21.4782 18.3685 22.2308 18.1852 22.9556C18.002 23.6525 17.7664 24.2937 17.4522 24.9348C17.3213 25.2136 17.1381 25.4923 16.9548 25.7432C16.8763 25.8269 16.7977 25.8826 16.6668 25.799C16.6145 25.7153 16.5359 25.576 16.4836 25.4366C16.2218 24.9069 16.0909 24.2937 15.9338 23.7361C15.6458 22.6769 15.4364 21.6176 15.227 20.5583C15.0175 19.3596 14.7819 18.1609 14.5987 16.9901C14.4678 16.1539 14.3107 15.3454 14.1536 14.5092C14.0227 13.7286 13.8918 12.9202 13.7609 12.1397C13.6824 11.7773 13.6562 11.4428 13.5777 11.0804C13.4468 10.3835 13.3159 9.6866 13.185 9.01758C13.0803 8.43218 12.9755 7.87466 12.7923 7.31714C12.7399 7.14988 12.6876 6.98262 12.5829 6.84324C12.5305 6.73174 12.452 6.62024 12.3211 6.59236C12.2163 6.53661 12.1116 6.48085 12.0331 6.45298C11.588 6.50873 11.3524 6.75962 11.2215 7.14988C11.1954 7.20563 11.1954 7.26139 11.1954 7.28926C11.0383 7.79103 10.9859 8.2928 10.9336 8.79457C10.855 9.40784 10.7241 10.0211 10.7503 10.6623C10.7503 10.7459 10.7241 10.8295 10.7241 10.8853C10.6194 11.1919 10.6456 11.4985 10.6194 11.8052C10.5932 12.2512 10.6194 12.7251 10.5147 13.1711C10.4885 13.3105 10.5147 13.4778 10.4885 13.6171C10.4885 14.0631 10.4623 14.537 10.4623 14.9831C10.4623 15.1503 10.4623 15.2897 10.4361 15.4291C10.3576 15.7636 10.3576 16.0981 10.3576 16.4326C10.3314 17.0738 10.3314 17.7428 10.3053 18.4118C10.3053 18.5791 10.3314 18.7742 10.2791 18.9415C10.2267 19.2481 10.2267 19.5826 10.2267 19.9171C10.2005 20.5861 10.2005 21.2831 10.2005 21.98C10.2005 22.6769 10.1482 23.3738 10.0173 24.0985C9.91256 24.2937 9.75549 24.433 9.70313 24.6839C9.70313 24.7397 9.67695 24.8233 9.67695 24.8791C9.70313 25.0742 9.75549 25.2415 9.78167 25.353C9.96492 25.6875 10.2267 25.8269 10.5409 25.9105C10.6456 25.9105 10.7765 25.8826 10.9074 25.8826C11.1692 25.7711 11.3262 25.6038 11.4571 25.353Z" fill="#A6AFC1"/>
<path d="M38.8859 21.9521C38.8598 21.7569 38.8598 21.5897 38.8336 21.4224C38.7812 21.1994 38.755 20.9485 38.755 20.7255C38.7289 20.0286 38.7289 19.3039 38.6241 18.6069C38.5718 18.0773 38.598 15.2897 38.6241 14.7322C38.6503 14.7043 38.6765 14.6485 38.7027 14.6485C39.0954 14.6207 41.9489 14.6485 42.2107 14.6764C42.2369 14.6764 42.2631 14.6764 42.2893 14.7043C42.394 14.8716 42.4202 15.0667 42.4463 15.2618C42.4463 15.5685 42.4463 15.8751 42.4987 16.1817C42.551 16.4884 42.5772 16.7671 42.6034 17.0738C42.6296 17.2689 42.6296 17.4362 42.6558 17.6034C42.7081 17.8264 42.7343 18.0494 42.7343 18.3003C42.7605 18.4397 42.7343 18.6069 42.7867 18.7463C42.8652 19.053 42.8652 19.3875 42.8914 19.722C42.9176 19.8614 42.9176 20.0286 42.9437 20.168C42.9961 20.391 43.0223 20.614 43.0223 20.837C43.0485 21.0879 43.0485 21.3109 43.1008 21.5339C43.1532 21.7012 43.1532 21.8684 43.1532 22.0636C43.1794 22.2587 43.1794 22.4538 43.2055 22.649C43.2055 22.9277 43.2841 23.2065 43.3364 23.4853C43.3364 23.5131 43.3626 23.5131 43.415 23.5968C43.4935 23.6804 43.6244 23.7919 43.7029 23.8755C43.9647 23.9592 44.1742 23.9592 44.3574 23.8755C44.6978 23.7083 44.8025 23.4016 44.8548 23.095C44.8025 22.7326 44.7763 22.3702 44.6978 22.0357C44.593 21.6176 44.593 21.1715 44.4621 20.7534C44.436 20.2238 44.2789 19.722 44.3051 19.1645C44.3051 19.1366 44.3051 19.0808 44.2789 19.0251C44.1742 18.7185 44.1742 18.3839 44.1742 18.0494C44.148 17.91 44.148 17.7985 44.1218 17.6592C44.0433 17.3804 44.0433 17.0738 44.0171 16.7671C44.0171 16.5441 43.9909 16.3211 43.9386 16.0981C43.8862 15.7636 43.86 15.1224 43.8862 14.6485C43.9385 14.5649 44.0171 14.5092 44.1218 14.5092C44.6454 14.5092 45.1428 14.3977 45.6402 14.2862C45.902 14.1468 46.0591 13.9795 46.1638 13.7565C46.2162 13.4499 46.1376 13.199 45.9544 13.0039C45.6926 12.8087 45.457 12.7808 45.169 12.8366C45.1166 12.8366 45.0381 12.8924 44.9857 12.8924C44.6192 13.0039 44.2265 13.0875 43.86 13.1711C43.8338 13.199 43.7815 13.1711 43.7291 13.1432C43.6506 13.0875 43.6244 12.976 43.6244 12.8924C43.5982 12.4742 43.6244 12.0561 43.5459 11.6658C43.4935 11.1919 43.4673 10.718 43.4411 10.2441C43.4411 10.0769 43.4411 9.93749 43.415 9.77023C43.3102 9.37997 43.3364 8.96183 43.3102 8.57156C43.3102 8.20917 43.3102 7.84678 43.2579 7.51227C43.2055 7.09413 43.1793 6.70386 43.1793 6.28572C43.1532 5.95121 43.1532 5.58882 43.1532 5.22643C43.0746 5.0313 43.0223 4.83617 42.9699 4.64103C42.8652 4.52953 42.7867 4.41802 42.6819 4.3344C42.5249 4.27864 42.394 4.25077 42.2369 4.19502C42.106 4.22289 41.9227 4.27864 41.8442 4.30652C41.5039 4.52953 41.3992 4.78041 41.4253 5.11493C41.4253 5.28218 41.4515 5.42156 41.4777 5.56094C41.5824 5.95121 41.5824 6.3136 41.6086 6.70386C41.6086 6.84324 41.6086 7.0105 41.6348 7.14988C41.7133 7.51227 41.7395 7.84678 41.7395 8.20917C41.7657 8.37643 41.7395 8.51581 41.7657 8.65519C41.8704 9.07333 41.8704 9.4636 41.8966 9.88174C41.9489 10.5229 42.0536 11.1919 42.0536 11.8331C42.0536 11.8888 42.0798 11.9446 42.0798 12.0003C42.1845 12.4185 42.1584 12.8366 42.1845 13.2547C42.1322 13.3105 42.106 13.3384 42.0798 13.3662C41.373 13.4499 39.5928 13.4499 38.7027 13.3941C38.6765 13.3662 38.6503 13.3384 38.6241 13.2826C38.598 12.7808 38.598 12.2791 38.6503 11.7773C38.7027 11.3034 38.7027 10.8574 38.7289 10.4114C38.755 10.049 38.7289 9.6866 38.7812 9.35209C38.8598 8.90607 38.8598 8.48793 38.8859 8.04192C38.9121 7.90254 38.8859 7.73528 38.9383 7.5959C39.0168 7.28926 39.0168 6.95475 39.043 6.62024C39.043 6.50873 39.043 6.36935 39.0692 6.25785C39.2001 5.50519 39.2786 4.75254 39.4357 4.05564C39.3572 3.72112 39.2786 3.47024 39.043 3.24723C38.9645 3.19148 38.8598 3.13573 38.7812 3.07997C38.7027 3.07997 38.6241 3.0521 38.5456 3.0521C38.4671 3.0521 38.3624 3.07997 38.2838 3.07997C37.8649 3.33086 37.8126 3.35873 37.6555 3.69325C37.577 3.83263 37.5246 3.97201 37.4723 4.08351C37.4461 4.30652 37.4199 4.50165 37.4984 4.69679C37.5508 4.80829 37.577 4.94767 37.6293 5.0313C37.6031 5.47732 37.6032 5.86758 37.5508 6.25785C37.4723 6.64811 37.4723 7.03838 37.4461 7.40077C37.4461 7.79103 37.4461 8.1813 37.3937 8.54369C37.3414 8.93395 37.3414 9.29634 37.3152 9.6866C37.3152 10.6623 37.289 11.6658 37.289 12.6415C37.2628 12.8087 37.289 12.9481 37.2628 13.0875C37.2628 13.199 37.2105 13.3105 37.1057 13.3384C36.6869 13.2826 36.268 13.2826 35.823 13.2826C35.6135 13.2547 35.4041 13.2826 35.1946 13.2269C34.6449 13.1154 34.0689 13.0596 33.5192 12.8645C33.2574 12.7808 33.0218 12.7251 32.76 12.6693C32.472 12.6136 32.2364 12.7251 32.0269 12.8924C31.8699 13.0317 31.8175 13.2269 31.7913 13.4778C31.8175 13.6171 31.8699 13.7844 31.8961 13.8959C32.0531 14.1468 32.2626 14.2304 32.472 14.314C32.6553 14.314 32.8385 14.314 33.0218 14.3698C33.3621 14.4813 33.7024 14.4813 34.0166 14.5092C34.1737 14.5092 34.3046 14.5092 34.4616 14.537C35.0376 14.6485 35.6397 14.6207 36.2156 14.537C36.5298 14.5092 36.8439 14.5092 37.1581 14.5649C37.1843 14.6207 37.2366 14.7043 37.289 14.7601C37.289 15.0109 37.2628 15.2618 37.289 15.5127C37.289 16.5999 37.3152 17.687 37.3414 18.7742C37.3414 18.9972 37.3152 19.1923 37.3675 19.3875C37.4199 19.6941 37.4199 20.0008 37.4461 20.3074C37.4461 20.6698 37.4461 21.06 37.4984 21.4503C37.5508 21.8685 37.577 22.2866 37.5508 22.7326C37.5508 22.8999 37.5508 23.0671 37.6293 23.2623C37.734 23.4016 37.8388 23.5131 37.9958 23.5968C38.3624 23.6804 38.6765 23.5689 38.8598 23.1786C38.8859 23.095 38.9121 22.9556 38.9645 22.8441C38.9121 22.4817 38.9121 22.2308 38.8859 21.9521Z" fill="#A6AFC1"/>
<path d="M49.1722 23.7083C49.2507 23.9313 49.3031 24.1543 49.3554 24.3494C49.4078 24.5446 49.5125 24.7118 49.6696 24.8233C49.7219 24.8512 49.7743 24.9069 49.8267 24.9069C50.0623 24.9627 50.2979 24.9348 50.455 24.7397C50.4811 24.6839 50.5335 24.6282 50.5597 24.5724C50.5597 24.4888 50.5859 24.433 50.5859 24.3773C50.5859 24.2658 50.5859 24.1543 50.5859 24.0428C50.3764 23.5131 50.1146 23.0114 50.0099 22.4817C50.0361 22.3423 50.1146 22.2866 50.1932 22.203C50.6382 21.7569 51.0833 21.3109 51.5807 20.8928C52.1828 20.3631 52.7849 19.8614 53.4656 19.4154C53.963 19.0808 54.4866 18.7742 55.0625 18.5791C55.3767 18.4676 55.6646 18.4397 55.9788 18.5233C56.0312 18.5512 56.0835 18.5512 56.1359 18.5791C56.293 18.5233 56.4239 18.4954 56.5547 18.4397C56.738 18.3282 56.8951 18.1888 56.9998 17.9379C56.9998 17.8264 56.9998 17.6592 56.9998 17.5198C56.9998 17.464 56.9736 17.3804 56.9474 17.3246C56.7904 17.0738 56.4239 16.8508 56.1621 16.9344C55.9003 16.9901 55.6385 17.0459 55.3767 17.1295C54.8007 17.2968 54.251 17.5477 53.7274 17.8822C52.9682 18.3282 52.2352 18.8857 51.5545 19.4711C50.9785 19.9729 50.4026 20.4746 49.8528 21.0043C49.8267 21.0322 49.8005 21.06 49.7481 21.0879C49.7219 21.0879 49.6958 21.0879 49.6434 21.0879C49.6172 21.06 49.591 21.0043 49.591 20.9764C49.4078 20.3074 49.3292 19.6384 49.2245 18.9693C49.1722 18.4676 49.0675 17.9379 49.0675 17.4083C49.0675 17.2131 48.9889 17.018 48.9889 16.8229C48.9627 16.2096 48.9366 15.5963 48.8842 14.9831C48.8318 14.3977 48.858 13.7565 48.858 13.1432C48.858 13.0875 48.8842 13.0317 48.9104 12.976C49.0151 12.9202 49.0936 12.8645 49.1983 12.8645C49.434 12.8366 49.6696 12.753 49.9314 12.6972C50.5073 12.5857 51.0833 12.4185 51.6592 12.2791C52.0519 12.1676 52.3922 12.0282 52.7587 11.8052C52.9158 11.7216 53.0467 11.5822 53.1776 11.4428C53.387 11.1362 53.4656 10.8295 53.3085 10.4671C53.2038 10.2163 53.0729 9.99324 52.8896 9.82598C52.8373 9.77023 52.7849 9.74236 52.7326 9.6866C52.6278 9.63085 52.5231 9.60298 52.4184 9.54722C51.9995 9.60298 51.7639 9.82598 51.7116 10.2999C51.7377 10.3835 51.7639 10.4671 51.7901 10.5786C51.8163 10.6901 51.9734 10.7738 51.921 10.941C51.8686 10.9689 51.8425 11.0247 51.7901 11.0525C51.476 11.1919 51.1618 11.3034 50.8476 11.387C50.5335 11.4707 50.1932 11.4985 49.879 11.5543C49.5649 11.6379 49.2769 11.6379 48.9627 11.6379C48.9366 11.6101 48.9104 11.5822 48.8842 11.5543C48.8842 11.3034 48.858 11.0804 48.8842 10.8853C48.9627 10.4114 48.9366 9.96536 48.9627 9.49147C48.9889 9.26846 48.9627 9.01758 49.0151 8.79457C49.0675 8.43218 49.0675 8.09767 49.0936 7.73528C49.1198 7.5959 49.146 7.42864 49.146 7.28926C49.1722 7.14988 49.1983 7.03838 49.1983 6.899C49.2245 6.50873 49.3031 6.11847 49.3554 5.7282C49.5387 5.53307 49.7219 5.42156 49.9052 5.31006C50.5859 4.89192 51.2927 4.52953 52.0257 4.22289C52.5231 4.02776 53.0205 3.83263 53.5179 3.63749C53.6227 3.60962 53.7274 3.58174 53.8321 3.52599C54.1462 3.38661 54.3295 3.13572 54.3819 2.74546C54.2248 2.27157 54.2248 2.27157 53.7536 2.04856C53.6488 2.04856 53.5441 2.04856 53.4918 2.04856C53.1253 2.13219 52.9682 2.35519 52.7849 2.49458C52.4184 2.63396 52.0781 2.77334 51.7639 2.91272C51.4236 3.07997 51.0833 3.21935 50.7429 3.38661C50.4288 3.52599 50.1408 3.749 49.8005 3.8605C49.6958 3.63749 49.7743 3.41449 49.6958 3.21935C49.6172 3.0521 49.5125 2.94059 49.3554 2.85696C49.0413 2.74546 48.7533 2.80121 48.4653 3.07997C48.2559 3.38661 47.9941 3.69325 47.68 3.91626C47.4967 4.02776 47.3396 4.19502 47.2611 4.39015C47.2087 4.61316 47.1825 4.83617 47.2611 5.1428C47.2611 5.22643 47.4182 5.33794 47.4443 5.53307C47.2873 5.7282 47.1564 5.92333 47.1564 6.17422C47.1564 6.34147 47.2087 6.45298 47.3134 6.59236C47.3396 6.64811 47.4182 6.70386 47.4967 6.75962C47.6538 6.78749 47.8108 6.78749 47.9679 6.81537C48.0203 6.81537 48.0465 6.87112 48.0726 6.899C48.0726 7.03838 48.0988 7.14988 48.0726 7.28926C47.9941 7.5959 47.9941 7.90254 47.9941 8.20917C47.9679 8.62731 47.9679 9.07333 47.9679 9.51935C47.9417 9.65873 47.9679 9.77023 47.9417 9.90961C47.8632 10.272 47.8894 10.6623 47.8894 11.0247C47.8894 11.3313 47.8894 11.6379 47.8894 11.8888C47.8108 12.0839 47.7847 12.2233 47.7323 12.3627C47.8632 12.8366 47.8632 12.8366 47.8894 13.3384C47.8894 13.422 47.8894 13.5335 47.8894 13.6171C47.9679 13.9238 47.9417 14.2583 47.9679 14.5928C47.9941 15.2618 47.9679 15.9587 48.0726 16.6277C48.0726 16.6556 48.0726 16.7114 48.0726 16.7393C48.0988 17.241 48.0988 17.7149 48.2035 18.1888C48.2297 18.3282 48.2297 18.4397 48.2297 18.5791C48.2297 18.7185 48.2559 18.8578 48.2821 18.9693C48.3344 19.1645 48.3344 19.3596 48.3606 19.5547C48.3606 19.6662 48.3606 19.7777 48.3868 19.8892C48.5177 20.4468 48.5439 21.06 48.7009 21.6176C48.7271 21.7569 48.7533 21.9242 48.7009 22.0915C48.3606 22.5375 47.8632 22.8162 47.4967 23.2623C47.4705 23.3738 47.4182 23.4295 47.4182 23.5131C47.392 23.5968 47.3658 23.7083 47.392 23.7919C47.4443 23.9592 47.5229 24.1543 47.7585 24.2658C47.8632 24.2658 47.9941 24.2658 48.0988 24.2658C48.3083 24.1822 48.4391 24.0985 48.5439 23.9592C48.6748 23.8198 48.8057 23.6804 48.9366 23.541C48.9627 23.5131 49.0151 23.5131 49.0413 23.5131C49.1198 23.5689 49.1722 23.6525 49.1722 23.7083Z" fill="#A6AFC1"/>
<path d="M61.6483 23.7083C61.7268 23.9313 61.7792 24.1543 61.8315 24.3494C61.8839 24.5446 61.9886 24.7118 62.1457 24.8233C62.198 24.8512 62.2504 24.9069 62.3027 24.9069C62.5384 24.9627 62.774 24.9348 62.9311 24.7397C62.9572 24.6839 63.0096 24.6282 63.0358 24.5724C63.0358 24.4888 63.062 24.433 63.062 24.3773C63.062 24.2658 63.062 24.1543 63.062 24.0428C62.8525 23.5131 62.5907 23.0114 62.486 22.4817C62.5122 22.3423 62.5907 22.2866 62.6693 22.203C63.1143 21.7569 63.5594 21.3109 64.0568 20.8928C64.6589 20.3631 65.261 19.8614 65.9417 19.4154C66.4391 19.0808 66.9627 18.7742 67.5386 18.5791C67.8528 18.4676 68.1407 18.4397 68.4549 18.5233C68.5072 18.5512 68.5596 18.5512 68.612 18.5791C68.769 18.5233 68.8999 18.4954 69.0308 18.4397C69.2141 18.3282 69.3712 18.1888 69.4759 17.9379C69.4759 17.8264 69.4759 17.6592 69.4759 17.5198C69.4759 17.464 69.4497 17.3804 69.4235 17.3246C69.2664 17.0738 68.8999 16.8508 68.6381 16.9344C68.3764 16.9901 68.1146 17.0459 67.8528 17.1295C67.2768 17.2968 66.7271 17.5477 66.2035 17.8822C65.4443 18.3282 64.7113 18.8857 64.0306 19.4711C63.4546 19.9729 62.8787 20.4746 62.3289 21.0043C62.3027 21.0322 62.2766 21.06 62.2242 21.0879C62.198 21.0879 62.1719 21.0879 62.1195 21.0879C62.0933 21.06 62.0671 21.0043 62.0671 20.9764C61.8839 20.3074 61.8053 19.6384 61.7006 18.9693C61.6483 18.4676 61.5435 17.9379 61.5435 17.4083C61.5435 17.2131 61.465 17.018 61.465 16.8229C61.4388 16.2096 61.4127 15.5963 61.3603 14.9831C61.3079 14.3977 61.3341 13.7565 61.3341 13.1432C61.3341 13.0875 61.3603 13.0317 61.3865 12.976C61.4912 12.9202 61.5697 12.8645 61.6744 12.8645C61.9101 12.8366 62.1457 12.753 62.4075 12.6972C62.9834 12.5857 63.5594 12.4185 64.1353 12.2791C64.528 12.1676 64.8683 12.0282 65.2348 11.8052C65.3919 11.7216 65.5228 11.5822 65.6537 11.4428C65.8631 11.1362 65.9417 10.8295 65.7846 10.4671C65.6799 10.2163 65.549 9.99324 65.3657 9.82598C65.3134 9.77023 65.261 9.74236 65.2086 9.6866C65.1039 9.63085 64.9992 9.60298 64.8945 9.54722C64.4756 9.60298 64.24 9.82598 64.1877 10.2999C64.2138 10.3835 64.24 10.4671 64.2662 10.5786C64.2924 10.6901 64.4495 10.7738 64.3971 10.941C64.3447 10.9689 64.3186 11.0247 64.2662 11.0525C63.952 11.1919 63.6379 11.3034 63.3237 11.387C63.0096 11.4707 62.6693 11.4985 62.3551 11.5543C62.041 11.6379 61.753 11.6379 61.4388 11.6379C61.4126 11.6101 61.3865 11.5822 61.3603 11.5543C61.3603 11.3034 61.3341 11.0804 61.3603 10.8853C61.4388 10.4114 61.4126 9.96536 61.4388 9.49147C61.465 9.26846 61.4388 9.01758 61.4912 8.79457C61.5435 8.43218 61.5435 8.09767 61.5697 7.73528C61.5959 7.5959 61.6221 7.42864 61.6221 7.28926C61.6483 7.14988 61.6744 7.03838 61.6744 6.899C61.7006 6.50873 61.7792 6.11847 61.8315 5.7282C62.0148 5.53307 62.198 5.42156 62.3813 5.31006C63.0619 4.89192 63.7688 4.52953 64.5018 4.22289C64.9992 4.02776 65.4966 3.83263 65.994 3.63749C66.0987 3.60962 66.2035 3.58174 66.3082 3.52599C66.6223 3.38661 66.8056 3.13572 66.8579 2.74546C66.7009 2.27157 66.7009 2.27157 66.2296 2.04856C66.1249 2.04856 66.0202 2.04856 65.9678 2.04856C65.6013 2.13219 65.4443 2.35519 65.261 2.49458C64.8945 2.63396 64.5542 2.77334 64.24 2.91272C63.8997 3.07997 63.5594 3.21935 63.219 3.38661C62.9049 3.52599 62.6169 3.749 62.2766 3.8605C62.1718 3.63749 62.2504 3.41449 62.1719 3.21935C62.0933 3.0521 61.9886 2.94059 61.8315 2.85696C61.5174 2.74546 61.2294 2.80121 60.9414 3.07997C60.732 3.38661 60.4702 3.69325 60.156 3.91626C59.9728 4.02776 59.8157 4.19502 59.7372 4.39015C59.6848 4.61316 59.6586 4.83617 59.7372 5.1428C59.7372 5.22643 59.8942 5.33794 59.9204 5.53307C59.7634 5.7282 59.6325 5.92333 59.6325 6.17422C59.6325 6.34147 59.6848 6.45298 59.7895 6.59236C59.8157 6.64811 59.8942 6.70386 59.9728 6.75962C60.1299 6.78749 60.2869 6.78749 60.444 6.81537C60.4964 6.81537 60.5226 6.87112 60.5487 6.899C60.5487 7.03838 60.5749 7.14988 60.5487 7.28926C60.4702 7.5959 60.4702 7.90254 60.4702 8.20917C60.444 8.62731 60.444 9.07333 60.444 9.51935C60.4178 9.65873 60.444 9.77023 60.4178 9.90961C60.3393 10.272 60.3655 10.6623 60.3655 11.0247C60.3655 11.3313 60.3655 11.6379 60.3655 11.8888C60.2869 12.0839 60.2608 12.2233 60.2084 12.3627C60.3393 12.8366 60.3393 12.8366 60.3655 13.3384C60.3655 13.422 60.3655 13.5335 60.3655 13.6171C60.444 13.9238 60.4178 14.2583 60.444 14.5928C60.4702 15.2618 60.444 15.9587 60.5487 16.6277C60.5487 16.6556 60.5487 16.7114 60.5487 16.7393C60.5749 17.241 60.5749 17.7149 60.6796 18.1888C60.7058 18.3282 60.7058 18.4397 60.7058 18.5791C60.7058 18.7185 60.732 18.8578 60.7582 18.9693C60.8105 19.1645 60.8105 19.3596 60.8367 19.5547C60.8367 19.6662 60.8367 19.7777 60.8629 19.8892C60.9938 20.4468 61.02 21.06 61.177 21.6176C61.2032 21.7569 61.2294 21.9242 61.177 22.0915C60.8367 22.5375 60.3393 22.8162 59.9728 23.2623C59.9466 23.3738 59.8942 23.4295 59.8942 23.5131C59.8681 23.5968 59.8419 23.7083 59.8681 23.7919C59.9204 23.9592 59.999 24.1543 60.2346 24.2658C60.3393 24.2658 60.4702 24.2658 60.5749 24.2658C60.7843 24.1822 60.9152 24.0985 61.02 23.9592C61.1509 23.8198 61.2818 23.6804 61.4127 23.541C61.4388 23.5131 61.4912 23.5131 61.5174 23.5131C61.5959 23.5689 61.6483 23.6525 61.6483 23.7083Z" fill="#A6AFC1"/>
<path d="M74.5602 6.4251C74.6649 6.75962 74.6649 7.06625 74.6649 7.40077C74.6911 7.84678 74.6649 8.32068 74.6649 8.76669C74.6911 10.6065 74.6911 12.4185 74.7173 14.2583C74.7173 14.4534 74.6911 14.6485 74.7173 14.8437C74.822 15.4012 74.7958 15.9587 74.822 16.5162C74.822 16.8786 74.822 17.241 74.8744 17.5755C74.9529 18.0773 74.9529 18.5791 74.9791 19.0808C75.0314 19.6662 75.1361 20.2516 75.1361 20.837C75.1361 20.8928 75.1623 20.9207 75.1623 20.9764C75.1885 21.1437 75.2409 21.3388 75.2409 21.5061C75.267 21.9521 75.3456 22.3981 75.4241 22.8162C75.5027 23.0392 75.6336 23.1786 75.843 23.2901C75.9477 23.2901 76.0524 23.318 76.1833 23.318C76.3666 23.318 76.5498 23.2623 76.6807 23.095C76.8116 22.9835 76.8902 22.8441 76.9425 22.6211C76.9425 22.5375 76.9687 22.3981 76.9425 22.2866C76.8378 21.9242 76.864 21.5618 76.7593 21.2273C76.6807 20.8649 76.7069 20.4746 76.6545 20.1123C76.6545 20.0565 76.6545 20.0008 76.6545 19.945C76.5498 19.5826 76.5498 19.1923 76.5498 18.83C76.5237 18.5512 76.5498 18.2446 76.4975 17.9937C76.4189 17.6034 76.4189 17.241 76.4189 16.8508C76.3928 16.2096 76.3666 15.5685 76.3666 14.9552C76.3666 14.7879 76.3666 14.6485 76.3404 14.4813C76.2619 14.091 76.288 13.6729 76.288 13.2826C76.288 12.53 76.288 11.7494 76.288 10.9968C76.288 10.5229 76.2619 10.049 76.3404 9.5751C76.3666 9.4636 76.3666 9.35209 76.3666 9.26846C76.3666 8.34855 76.3666 7.42864 76.3928 6.50873C76.3928 6.4251 76.3928 6.3136 76.3928 6.20209C76.4713 6.17422 76.5498 6.11847 76.6022 6.14634C76.9949 6.25785 77.4399 6.28572 77.8588 6.36935C78.3038 6.48085 78.7751 6.56448 79.2463 6.67599C79.7175 6.78749 80.1888 6.87112 80.6338 6.95475C81.0003 7.03838 81.3406 7.09413 81.7333 6.98262C81.8119 6.92687 81.8904 6.84324 81.969 6.75962C81.969 6.62024 81.9951 6.53661 81.9951 6.4251C82.0213 6.20209 81.9428 5.97909 81.7333 5.83971C81.4715 5.7282 81.2098 5.64457 80.9218 5.64457C80.7909 5.64457 80.6862 5.64457 80.5553 5.6167C80.2935 5.56094 80.0579 5.50519 79.7961 5.50519C79.4819 5.50519 79.2201 5.36581 78.9322 5.36581C78.4871 5.33794 78.042 5.17068 77.597 5.17068C76.9687 4.97555 76.288 4.89192 75.6335 4.75254C74.822 4.58528 74.0104 4.39015 73.1989 4.22289C72.8585 4.16714 72.5182 4.05564 72.1517 3.97201C71.8114 3.91626 71.471 3.80475 71.1045 3.77687C70.7118 3.63749 70.3191 3.66537 69.9526 3.69325C69.6647 3.77687 69.429 3.91626 69.2981 4.16714C69.1673 4.41802 69.1934 4.66891 69.2458 4.91979C69.3505 5.11493 69.4814 5.25431 69.6647 5.33794C69.9003 5.39369 70.1359 5.36581 70.3715 5.33794C70.9213 5.31006 71.471 5.33794 72.0208 5.39369C72.2826 5.47732 72.5706 5.47732 72.8585 5.50519C73.1465 5.56094 73.4083 5.6167 73.6963 5.64457C73.9581 5.67245 74.2199 5.75608 74.4817 5.86758C74.5078 6.09059 74.5078 6.28572 74.5602 6.4251Z" fill="#A6AFC1"/>
</svg>
