<svg xmlns="http://www.w3.org/2000/svg" width="57" height="57" viewBox="0 0 57 57">
    <path
        d="M28.5 57C28.5 57 49.875 36.7436 49.875 21.375C49.875 15.706 47.623 10.2692 43.6144 6.26059C39.6058 2.252 34.169 0 28.5 0C22.831 0 17.3942 2.252 13.3856 6.26059C9.377 10.2692 7.125 15.706 7.125 21.375C7.125 36.7436 28.5 57 28.5 57ZM28.5 32.0625C25.6655 32.0625 22.9471 30.9365 20.9428 28.9322C18.9385 26.9279 17.8125 24.2095 17.8125 21.375C17.8125 18.5405 18.9385 15.8221 20.9428 13.8178C22.9471 11.8135 25.6655 10.6875 28.5 10.6875C31.3345 10.6875 34.0529 11.8135 36.0572 13.8178C38.0615 15.8221 39.1875 18.5405 39.1875 21.375C39.1875 24.2095 38.0615 26.9279 36.0572 28.9322C34.0529 30.9365 31.3345 32.0625 28.5 32.0625Z"
        fill="#FE4F23" />
</svg>