<svg xmlns="http://www.w3.org/2000/svg" width="48" height="48" viewBox="0 0 48 48" fill="none">
    <path
        d="M34.848 18.8642L28.8 17.9042C28.656 17.9042 28.512 17.9042 28.416 18.0002C28.32 18.0962 28.272 18.2402 28.272 18.3842V24.2402H26.256V19.3442C26.256 19.1042 26.064 18.9122 25.872 18.8642L19.824 17.9042C19.68 17.9042 19.536 17.9042 19.44 18.0002C19.248 18.1442 19.2 18.2402 19.2 18.3842V24.2402H18.048V15.7442C18.048 15.5522 17.952 15.3602 17.76 15.3122L10.8 12.4802C10.656 12.4322 10.464 12.4322 10.368 12.5282C10.224 12.6242 10.176 12.7682 10.176 12.9122V37.9202C10.176 38.2082 10.368 38.4002 10.656 38.4002H34.8C35.088 38.4002 35.28 38.2082 35.28 37.9202V19.3442C35.232 19.1042 35.088 18.9122 34.848 18.8642ZM29.184 18.9602L34.272 19.7282V24.2402H29.184V18.9602ZM20.16 18.9602L25.248 19.7282V24.2402H20.16V18.9602ZM17.04 16.0802V24.2882H11.088V13.6322L17.04 16.0802ZM11.088 37.4402V25.2482H17.568H19.68H25.728H28.704H34.272V37.4402H11.088ZM16.08 28.3682H12.96C12.672 28.3682 12.48 28.5602 12.48 28.8482V32.4002C12.48 32.6882 12.672 32.8802 12.96 32.8802H16.08C16.368 32.8802 16.56 32.6882 16.56 32.4002V28.8482C16.56 28.6082 16.368 28.3682 16.08 28.3682ZM15.6 31.9202H13.44V29.3282H15.6V31.9202ZM21.6 28.3682H18.48C18.192 28.3682 18 28.5602 18 28.8482V32.4002C18 32.6882 18.192 32.8802 18.48 32.8802H21.6C21.888 32.8802 22.08 32.6882 22.08 32.4002V28.8482C22.08 28.6082 21.888 28.3682 21.6 28.3682ZM21.12 31.9202H18.96V29.3282H21.12V31.9202ZM27.12 28.3682H24C23.712 28.3682 23.52 28.5602 23.52 28.8482V32.4002C23.52 32.6882 23.712 32.8802 24 32.8802H27.12C27.408 32.8802 27.6 32.6882 27.6 32.4002V28.8482C27.6 28.6082 27.408 28.3682 27.12 28.3682ZM26.64 31.9202H24.48V29.3282H26.64V31.9202ZM32.64 28.3682H29.52C29.232 28.3682 29.04 28.5602 29.04 28.8482V32.4002C29.04 32.6882 29.232 32.8802 29.52 32.8802H32.64C32.928 32.8802 33.12 32.6882 33.12 32.4002V28.8482C33.12 28.6082 32.928 28.3682 32.64 28.3682ZM32.16 31.9202H30V29.3282H32.16V31.9202ZM37.728 10.4162C37.584 10.6082 33.648 14.7362 30.576 14.7362C28.8 14.7362 28.272 13.7282 27.84 12.9122C27.456 12.1442 27.12 11.5202 25.872 11.3282C24.72 11.1362 23.808 11.3282 23.184 11.8562C22.128 12.7202 22.128 14.2562 22.128 14.3042C22.128 14.5922 21.888 14.7842 21.648 14.7842C21.36 14.7842 21.168 14.5442 21.168 14.3042C21.168 14.2082 21.216 12.2882 22.608 11.1362C23.472 10.4162 24.624 10.1762 26.064 10.4162C27.792 10.7042 28.32 11.7122 28.704 12.5282C29.136 13.2962 29.376 13.8242 30.576 13.8242C33.264 13.8242 37.008 9.84025 37.056 9.79225C37.248 9.60025 37.536 9.60025 37.728 9.74425C37.92 9.88825 37.92 10.2242 37.728 10.4162ZM23.808 17.3282C23.52 17.2802 23.376 17.0402 23.424 16.8002C23.424 16.7522 23.712 15.4082 24.864 14.7842C25.728 14.3522 26.784 14.4002 28.08 14.9762C28.32 15.0722 28.416 15.3602 28.32 15.6002C28.224 15.8402 27.936 15.9362 27.696 15.8402C26.688 15.4082 25.92 15.3122 25.344 15.6482C24.576 16.0322 24.384 16.9922 24.384 16.9922C24.336 17.2322 24.144 17.3762 23.904 17.3762C23.856 17.3282 23.856 17.3282 23.808 17.3282Z"
        fill="#FE4F23" />
</svg>