<svg xmlns="http://www.w3.org/2000/svg" width="48" height="48" viewBox="0 0 48 48" fill="none">

    <path
        d="M8.73976 20.5022C8.69638 20.6354 8.69116 20.7781 8.72469 20.9141C8.75823 21.0501 8.82918 21.1739 8.92951 21.2717L15.9218 28.0854L14.2718 37.7079C14.2481 37.8459 14.2636 37.9877 14.3163 38.1173C14.369 38.2469 14.457 38.3592 14.5702 38.4414C14.6834 38.5237 14.8174 38.5726 14.957 38.5827C15.0965 38.5927 15.2362 38.5636 15.36 38.4984L24 33.9557L32.6415 38.4984C32.7654 38.5636 32.905 38.5927 33.0446 38.5827C33.1841 38.5726 33.3181 38.5237 33.4313 38.4414C33.5445 38.3592 33.6325 38.2469 33.6852 38.1173C33.738 37.9877 33.7534 37.8459 33.7298 37.7079L32.0798 28.0854L39.072 21.2717C39.1723 21.174 39.2432 21.0501 39.2768 20.9142C39.3103 20.7783 39.3052 20.6356 39.2618 20.5025C39.2185 20.3693 39.1388 20.251 39.0317 20.1608C38.9246 20.0706 38.7943 20.0122 38.6558 19.9922L28.9928 18.5882L24.675 9.8342C24.6061 9.71725 24.5079 9.62031 24.39 9.55297C24.2721 9.48562 24.1388 9.4502 24.003 9.4502C23.8673 9.4502 23.7339 9.48562 23.616 9.55297C23.4982 9.62031 23.3999 9.71725 23.331 9.8342L19.0073 18.5882L9.34576 19.9922C9.20722 20.0122 9.07704 20.0705 8.96995 20.1607C8.86285 20.2508 8.78312 20.3691 8.73976 20.5022ZM19.6148 20.0162C19.7351 19.9987 19.8494 19.9522 19.9478 19.8808C20.0462 19.8093 20.1257 19.715 20.1795 19.6059L24 11.8607L27.825 19.6059C27.8788 19.715 27.9584 19.8093 28.0568 19.8808C28.1551 19.9522 28.2694 19.9987 28.3898 20.0162L36.9398 21.2582L30.75 27.2867C30.663 27.3716 30.598 27.4764 30.5605 27.592C30.523 27.7076 30.5142 27.8306 30.5348 27.9504L31.995 36.4637L24.3488 32.4444C24.2412 32.3879 24.1215 32.3584 24 32.3584C23.8785 32.3584 23.7588 32.3879 23.6513 32.4444L16.0058 36.4637L17.466 27.9504C17.4865 27.8306 17.4776 27.7075 17.4399 27.5919C17.4023 27.4763 17.3371 27.3715 17.25 27.2867L11.0648 21.2582L19.6148 20.0162Z"
        fill="#FE4F23" />
    <path
        d="M24 6.53325C24.1989 6.53325 24.3897 6.45423 24.5303 6.31358C24.671 6.17293 24.75 5.98216 24.75 5.78325V1.5C24.75 1.30109 24.671 1.11032 24.5303 0.96967C24.3897 0.829018 24.1989 0.75 24 0.75C23.8011 0.75 23.6103 0.829018 23.4697 0.96967C23.329 1.11032 23.25 1.30109 23.25 1.5V5.78325C23.25 5.98216 23.329 6.17293 23.4697 6.31358C23.6103 6.45423 23.8011 6.53325 24 6.53325Z"
        fill="#FE4F23" />
    <path
        d="M10.5885 11.649C10.73 11.7856 10.9194 11.8612 11.1161 11.8595C11.3127 11.8578 11.5008 11.7789 11.6399 11.6399C11.7789 11.5008 11.8578 11.3127 11.8595 11.1161C11.8612 10.9194 11.7856 10.73 11.649 10.5885L8.62052 7.56002C8.55134 7.48839 8.46858 7.43125 8.37707 7.39194C8.28557 7.35264 8.18716 7.33195 8.08757 7.33108C7.98799 7.33022 7.88923 7.34919 7.79705 7.3869C7.70488 7.42462 7.62114 7.4803 7.55072 7.55072C7.4803 7.62114 7.42462 7.70488 7.3869 7.79705C7.34919 7.88923 7.33022 7.98799 7.33108 8.08757C7.33195 8.18716 7.35264 8.28557 7.39194 8.37707C7.43125 8.46858 7.48839 8.55134 7.56002 8.62052L10.5885 11.649Z"
        fill="#FE4F23" />
    <path
        d="M1.5 24.75H5.78325C5.98216 24.75 6.17293 24.671 6.31358 24.5303C6.45423 24.3897 6.53325 24.1989 6.53325 24C6.53325 23.8011 6.45423 23.6103 6.31358 23.4697C6.17293 23.329 5.98216 23.25 5.78325 23.25H1.5C1.30109 23.25 1.11032 23.329 0.96967 23.4697C0.829018 23.6103 0.75 23.8011 0.75 24C0.75 24.1989 0.829018 24.3897 0.96967 24.5303C1.11032 24.671 1.30109 24.75 1.5 24.75Z"
        fill="#FE4F23" />
    <path
        d="M8.09023 40.6598C8.18876 40.6601 8.28636 40.6408 8.37738 40.603C8.4684 40.5653 8.55103 40.5099 8.62048 40.44L11.649 37.4115C11.7206 37.3424 11.7778 37.2596 11.8171 37.1681C11.8564 37.0766 11.8771 36.9782 11.8779 36.8786C11.8788 36.779 11.8598 36.6802 11.8221 36.5881C11.7844 36.4959 11.7287 36.4122 11.6583 36.3417C11.5879 36.2713 11.5041 36.2156 11.4119 36.1779C11.3198 36.1402 11.221 36.1212 11.1214 36.1221C11.0218 36.123 10.9234 36.1437 10.8319 36.183C10.7404 36.2223 10.6577 36.2794 10.5885 36.351L7.55998 39.3795C7.45513 39.4844 7.38372 39.618 7.3548 39.7635C7.32587 39.909 7.34072 40.0598 7.39747 40.1968C7.45423 40.3338 7.55033 40.4509 7.67364 40.5333C7.79695 40.6158 7.94192 40.6598 8.09023 40.6598Z"
        fill="#FE4F23" />
    <path
        d="M23.25 42.2168V46.5C23.25 46.699 23.329 46.8897 23.4697 47.0304C23.6103 47.171 23.8011 47.25 24 47.25C24.1989 47.25 24.3897 47.171 24.5303 47.0304C24.671 46.8897 24.75 46.699 24.75 46.5V42.2168C24.75 42.0179 24.671 41.8271 24.5303 41.6865C24.3897 41.5458 24.1989 41.4668 24 41.4668C23.8011 41.4668 23.6103 41.5458 23.4697 41.6865C23.329 41.8271 23.25 42.0179 23.25 42.2168Z"
        fill="#FE4F23" />
    <path
        d="M37.4115 36.351C37.3423 36.2794 37.2595 36.2223 37.168 36.183C37.0765 36.1437 36.9781 36.123 36.8785 36.1221C36.7789 36.1212 36.6802 36.1402 36.588 36.1779C36.4958 36.2156 36.4121 36.2713 36.3417 36.3417C36.2713 36.4122 36.2156 36.4959 36.1779 36.5881C36.1401 36.6802 36.1212 36.779 36.122 36.8786C36.1229 36.9782 36.1436 37.0766 36.1829 37.1681C36.2222 37.2596 36.2793 37.3424 36.351 37.4115L39.3795 40.44C39.5209 40.5767 39.7104 40.6522 39.907 40.6505C40.1037 40.6488 40.2918 40.57 40.4308 40.4309C40.5699 40.2918 40.6488 40.1037 40.6505 39.9071C40.6522 39.7104 40.5766 39.521 40.44 39.3795L37.4115 36.351Z"
        fill="#FE4F23" />
    <path
        d="M46.5 23.25H42.2167C42.0178 23.25 41.8271 23.329 41.6864 23.4697C41.5458 23.6103 41.4667 23.8011 41.4667 24C41.4667 24.1989 41.5458 24.3897 41.6864 24.5303C41.8271 24.671 42.0178 24.75 42.2167 24.75H46.5C46.6989 24.75 46.8897 24.671 47.0303 24.5303C47.171 24.3897 47.25 24.1989 47.25 24C47.25 23.8011 47.171 23.6103 47.0303 23.4697C46.8897 23.329 46.6989 23.25 46.5 23.25Z"
        fill="#FE4F23" />
    <path
        d="M36.8812 11.8688C37.0801 11.8687 37.2709 11.7897 37.4115 11.649L40.44 8.62052C40.5116 8.55134 40.5688 8.46858 40.6081 8.37707C40.6474 8.28557 40.6681 8.18716 40.6689 8.08757C40.6698 7.98799 40.6508 7.88923 40.6131 7.79705C40.5754 7.70488 40.5197 7.62114 40.4493 7.55072C40.3789 7.4803 40.2951 7.42462 40.203 7.3869C40.1108 7.34919 40.012 7.33022 39.9124 7.33108C39.8129 7.33195 39.7144 7.35264 39.6229 7.39194C39.5314 7.43125 39.4487 7.48839 39.3795 7.56002L36.351 10.5885C36.2461 10.6934 36.1747 10.827 36.1458 10.9725C36.1169 11.118 36.1317 11.2687 36.1885 11.4058C36.2452 11.5428 36.3413 11.6599 36.4647 11.7423C36.588 11.8247 36.7329 11.8687 36.8812 11.8688Z"
        fill="#FE4F23" />

</svg>