<svg xmlns="http://www.w3.org/2000/svg" width="48" height="48" viewBox="0 0 48 48" fill="none">
    <path
        d="M34.0869 38.2476H11.5644C11.364 38.2476 11.2 38.0837 11.2 37.8833V8.25891C11.2 8.0585 11.364 7.89453 11.5644 7.89453H34.0869C34.2873 7.89453 34.4513 8.0585 34.4513 8.25891V9.76017C34.4513 12.1674 34.4513 16.9959 34.4513 20.6807V29.0506C34.4513 29.149 34.4112 29.2401 34.3456 29.3093L30.4431 33.2119V35.3763H32.6075L33.8319 34.152C33.9375 34.0463 34.0942 34.0172 34.229 34.0718C34.3639 34.1265 34.455 34.2613 34.455 34.407V37.8833C34.4513 38.0873 34.2873 38.2476 34.0869 38.2476ZM11.9288 37.5189H33.7225V35.2888L33.0156 35.9958C32.9464 36.065 32.8553 36.1014 32.7569 36.1014H30.0787C29.8783 36.1014 29.7143 35.9375 29.7143 35.737V33.0588C29.7143 32.9604 29.7544 32.8693 29.82 32.8001L33.7225 28.8976C33.7225 20.7775 33.7225 16.2173 33.7225 8.6233H11.9288V37.5189Z"
        fill="#FE4F23" />
    <path
        d="M34.4513 13.732L11.5644 13.7319C11.364 13.7319 11.2 13.568 11.2 13.3676V8.25891C11.2 8.0585 11.364 7.89453 11.5644 7.89453H34.0869C34.2873 7.89453 34.4513 8.0585 34.4513 8.25891V9.76017C34.4513 10.2522 34.4513 13.732 34.4513 13.732ZM11.9288 13.0032H33.7225C34.24 11.4414 33.7225 10.3433 33.7225 8.6233H11.9288V13.0032Z"
        fill="#FE4F23" />
    <path
        d="M15.2082 10.19C15.0078 10.19 14.8438 10.026 14.8438 9.82559V6.76477C14.8438 6.56436 15.0078 6.40039 15.2082 6.40039C15.4086 6.40039 15.5726 6.56436 15.5726 6.76477V9.82559C15.5726 10.026 15.4123 10.19 15.2082 10.19Z"
        fill="#FE4F23" />
    <path
        d="M19.016 10.19C18.8156 10.19 18.6516 10.026 18.6516 9.82559V6.76477C18.6516 6.56436 18.8156 6.40039 19.016 6.40039C19.2164 6.40039 19.3804 6.56436 19.3804 6.76477V9.82559C19.3804 10.026 19.2201 10.19 19.016 10.19Z"
        fill="#FE4F23" />
    <path
        d="M26.6353 10.19C26.4349 10.19 26.2709 10.026 26.2709 9.82559V6.76477C26.2709 6.56436 26.4349 6.40039 26.6353 6.40039C26.8357 6.40039 26.9997 6.56436 26.9997 6.76477V9.82559C26.9997 10.026 26.8357 10.19 26.6353 10.19Z"
        fill="#FE4F23" />
    <path
        d="M22.8275 10.19C22.627 10.19 22.4631 10.026 22.4631 9.82559V6.76477C22.4631 6.56436 22.627 6.40039 22.8275 6.40039C23.0279 6.40039 23.1918 6.56436 23.1918 6.76477V9.82559C23.1918 10.026 23.0279 10.19 22.8275 10.19Z"
        fill="#FE4F23" />
    <path
        d="M30.4431 10.19C30.2427 10.19 30.0787 10.026 30.0787 9.82559V6.76477C30.0787 6.56436 30.2427 6.40039 30.4431 6.40039C30.6435 6.40039 30.8075 6.56436 30.8075 6.76477V9.82559C30.8075 10.026 30.6435 10.19 30.4431 10.19Z"
        fill="#FE4F23" />
    <path
        d="M18.699 21.1365H14.3264C14.126 21.1365 13.962 20.9725 13.962 20.7721V16.3995C13.962 16.1991 14.126 16.0352 14.3264 16.0352H18.699C18.8994 16.0352 19.0634 16.1991 19.0634 16.3995V20.7721C19.0634 20.9725 18.8994 21.1365 18.699 21.1365ZM14.6908 20.4078H18.3346V16.7639H14.6908V20.4078Z"
        fill="#FE4F23" />
    <path
        d="M16.2027 19.6756C16.1044 19.6756 16.0133 19.6355 15.944 19.5699L15.3574 18.9832C15.2153 18.8411 15.2153 18.6116 15.3574 18.4695C15.4995 18.3274 15.729 18.3274 15.8712 18.4695L16.1991 18.7974L17.1429 17.8537C17.285 17.7115 17.5145 17.7115 17.6566 17.8537C17.7987 17.9958 17.7987 18.2253 17.6566 18.3674L16.4578 19.5663C16.3922 19.6355 16.3011 19.6756 16.2027 19.6756Z"
        fill="#FE4F23" />
    <path
        d="M30.4795 19.0745H21.3189C21.1185 19.0745 20.9546 18.9105 20.9546 18.7101C20.9546 18.5097 21.1185 18.3457 21.3189 18.3457H30.4795C30.6799 18.3457 30.8439 18.5097 30.8439 18.7101C30.8439 18.9105 30.6799 19.0745 30.4795 19.0745Z"
        fill="#FE4F23" />
    <path
        d="M18.699 28.0877H14.3264C14.126 28.0877 13.962 27.9237 13.962 27.7233V23.3507C13.962 23.1503 14.126 22.9863 14.3264 22.9863H18.699C18.8994 22.9863 19.0634 23.1503 19.0634 23.3507V27.7233C19.0634 27.9237 18.8994 28.0877 18.699 28.0877ZM14.6908 27.3589H18.3346V23.7151H14.6908V27.3589Z"
        fill="#FE4F23" />
    <path
        d="M30.4795 25.9006H21.3189C21.1185 25.9006 20.9546 25.7367 20.9546 25.5363C20.9546 25.3358 21.1185 25.1719 21.3189 25.1719H30.4795C30.6799 25.1719 30.8439 25.3358 30.8439 25.5363C30.8439 25.7367 30.6799 25.9006 30.4795 25.9006Z"
        fill="#FE4F23" />
    <path
        d="M18.699 35.0408H14.3264C14.126 35.0408 13.962 34.8768 13.962 34.6764V30.3038C13.962 30.1034 14.126 29.9395 14.3264 29.9395H18.699C18.8994 29.9395 19.0634 30.1034 19.0634 30.3038V34.6764C19.0634 34.8768 18.8994 35.0408 18.699 35.0408ZM14.6908 34.312H18.3346V30.6682H14.6908V34.312Z"
        fill="#FE4F23" />
    <path
        d="M30.8476 32.7258H21.6833C21.4829 32.7258 21.3189 32.5619 21.3189 32.3615C21.3189 32.161 21.4829 31.9971 21.6833 31.9971H30.8439C31.0443 31.9971 31.2083 32.161 31.2083 32.3615C31.2083 32.5619 31.048 32.7258 30.8476 32.7258Z"
        fill="#FE4F23" />
    <path
        d="M40.7661 28.0981C40.6713 28.0981 40.5802 28.0617 40.5074 27.9924L37.8291 25.3142C37.687 25.1721 37.687 24.9426 37.8291 24.8004L39.5673 23.0623C39.9681 22.6615 40.6203 22.6615 41.0211 23.0623L42.7629 24.8041C43.1637 25.2049 43.1637 25.8572 42.7629 26.258L41.0248 27.9961C40.9519 28.0617 40.8608 28.0981 40.7661 28.0981ZM38.6016 25.0519L40.7661 27.2163L42.2455 25.7369C42.3621 25.6203 42.3621 25.4308 42.2455 25.3142L40.5037 23.5725C40.3871 23.4559 40.1976 23.4559 40.081 23.5725L38.6016 25.0519Z"
        fill="#FE4F23" />
    <path
        d="M32.7569 36.1065H30.0787C29.8783 36.1065 29.7143 35.9425 29.7143 35.7421V33.0639C29.7143 32.9655 29.7544 32.8744 29.82 32.8052L37.8291 24.796C37.9712 24.6539 38.2008 24.6539 38.3429 24.796L41.0211 27.4743C41.0904 27.5435 41.1268 27.6346 41.1268 27.733C41.1268 27.8313 41.0867 27.9224 41.0211 27.9917L33.0156 35.9972C32.9464 36.0664 32.8553 36.1065 32.7569 36.1065ZM30.4431 35.3777H32.6075L40.2523 27.733L38.0879 25.5685L30.4431 33.2133V35.3777Z"
        fill="#FE4F23" />
    <path
        d="M15.8094 26.6016C15.7147 26.6016 15.6236 26.5651 15.5507 26.4959C15.4086 26.3538 15.4086 26.1242 15.5507 25.9821L16.9536 24.5792C17.0957 24.4371 17.3253 24.4371 17.4674 24.5792C17.6095 24.7213 17.6095 24.9509 17.4674 25.093L16.0645 26.4959C15.9953 26.5651 15.9042 26.6016 15.8094 26.6016Z"
        fill="#FE4F23" />
    <path
        d="M17.2123 26.6016C17.1176 26.6016 17.0265 26.5651 16.9536 26.4959L15.5507 25.093C15.4086 24.9509 15.4086 24.7213 15.5507 24.5792C15.6928 24.4371 15.9224 24.4371 16.0645 24.5792L17.4674 25.9821C17.6095 26.1242 17.6095 26.3538 17.4674 26.4959C17.3982 26.5651 17.3071 26.6016 17.2123 26.6016Z"
        fill="#FE4F23" />
</svg>