<svg xmlns="http://www.w3.org/2000/svg" width="48" height="48" viewBox="0 0 48 48" fill="none">
    <path
        d="M26.4287 4.00067C26.2626 3.99676 26.0978 4.01009 25.9357 4.03948C25.8277 4.05905 25.7209 4.08541 25.6166 4.11945C25.46 4.17053 25.3089 4.23774 25.165 4.32058L20.1998 7.18338L20.1938 7.18693L20.0709 7.25749L16.6437 9.23341L16.6425 9.23461L11.9564 11.9362C11.9041 11.9663 11.8545 11.999 11.805 12.0326C11.7908 12.0424 11.7765 12.052 11.7625 12.0621C11.7238 12.0896 11.6857 12.1183 11.649 12.1479C11.6383 12.1565 11.6276 12.165 11.6171 12.1738C11.5806 12.2042 11.5452 12.2355 11.5107 12.2679C11.5005 12.2774 11.4899 12.2864 11.4799 12.2961C11.4401 12.3348 11.4022 12.3749 11.3653 12.4161C11.3612 12.4206 11.3575 12.4256 11.3535 12.4302C11.3513 12.4327 11.3486 12.4348 11.3464 12.4372C11.3088 12.4802 11.2731 12.5248 11.2388 12.5701C11.2312 12.5802 11.2238 12.5905 11.2163 12.6007C11.1862 12.6418 11.1574 12.6837 11.13 12.7266C11.1253 12.734 11.1205 12.7414 11.1158 12.7489C11.0853 12.7978 11.0565 12.8473 11.0295 12.8983C11.0275 12.9021 11.0257 12.9062 11.0236 12.91C10.9942 12.9665 10.9669 13.0243 10.942 13.0829C10.818 13.3753 10.7506 13.6929 10.7506 14.0203V17.8439H11.9611V14.2778L25.0881 21.844C25.3032 21.9679 25.5327 22.0577 25.7678 22.1145V26.4815C21.8148 26.6947 18.5523 29.5124 17.6771 33.236L12.564 30.2909C12.1907 30.0758 11.9612 29.6773 11.9611 29.2453V27.5035H14.517C14.8531 27.5048 15.1259 27.2334 15.1246 26.899C15.1233 26.5664 14.8512 26.2979 14.517 26.2991H7.01832C6.68402 26.2978 6.41198 26.5664 6.41068 26.899C6.40937 27.2334 6.6822 27.5048 7.01832 27.5035H10.7504V29.2453C10.7505 30.1042 11.2098 30.9004 11.9562 31.3307L17.4758 34.5121C17.4561 34.7506 17.4427 34.9909 17.4427 35.2343C17.4427 40.0682 21.3912 44 26.2499 44C31.1087 44 35.0607 40.0682 35.0607 35.2343C35.0607 35.0365 35.0513 34.8408 35.0382 34.6462L40.7894 31.3307C41.5359 30.9005 41.9999 30.1042 42 29.2454V14.0202C42 13.6982 41.9342 13.3854 41.8132 13.097C41.8112 13.0923 41.8093 13.0875 41.8072 13.0829C41.8009 13.068 41.7937 13.054 41.7871 13.0393C41.7718 13.0054 41.7567 12.9713 41.7398 12.9382C41.727 12.9128 41.7134 12.8878 41.6996 12.8629C41.6829 12.8326 41.6657 12.8031 41.6476 12.7735C41.6346 12.7522 41.6211 12.7309 41.6074 12.71C41.5902 12.6836 41.5714 12.6581 41.5531 12.6324C41.5354 12.6076 41.5184 12.5824 41.4998 12.5583C41.468 12.5169 41.4351 12.4765 41.4005 12.4371C41.3811 12.415 41.3605 12.3939 41.3403 12.3725C41.3199 12.3509 41.3 12.3287 41.2788 12.3078C41.2582 12.2876 41.2363 12.2685 41.215 12.249C41.1929 12.2288 41.1704 12.2095 41.1476 12.1902C41.1261 12.1719 41.1047 12.1536 41.0825 12.1361C41.0527 12.1124 41.0214 12.0901 40.9903 12.0678C40.9738 12.056 40.9576 12.044 40.9407 12.0326C40.8912 11.9989 40.8417 11.9663 40.7893 11.9361L27.5809 4.32056C27.2303 4.11865 26.8337 4.00999 26.4287 4.00067ZM26.3968 5.2015C26.3984 5.20151 26.4011 5.20151 26.4028 5.2015C26.4028 5.20271 26.4028 5.20385 26.4028 5.20505C26.6043 5.20976 26.799 5.26552 26.9738 5.36618L40.1859 12.9758C40.2519 13.0143 40.2765 13.0957 40.3338 13.1452L35.9691 15.6609L21.7262 7.69729L25.7727 5.36619C25.8175 5.3404 25.8637 5.31802 25.9111 5.29797C25.9174 5.29525 25.9235 5.29231 25.93 5.28973C25.972 5.27275 26.0153 5.25843 26.0588 5.24621C26.0684 5.24356 26.0776 5.24044 26.0872 5.23797C26.1318 5.22666 26.1764 5.21819 26.222 5.2121C26.2271 5.21144 26.2322 5.21035 26.2373 5.20975C26.2389 5.20957 26.2406 5.20993 26.2421 5.20975C26.2931 5.20386 26.3452 5.20053 26.3968 5.2015ZM20.5072 8.39945L34.7537 16.3607L32.5939 17.6062L18.1807 9.7401L18.2836 9.68012L20.5072 8.39945ZM16.956 10.4459L31.3703 18.312L27.0542 20.7995C26.6332 21.042 26.1167 21.042 25.6958 20.7995L12.4164 13.1452C12.4738 13.0954 12.4977 13.0143 12.5642 12.9759L16.956 10.4459ZM40.7898 14.2778V29.2454C40.7898 29.6773 40.5602 30.0758 40.1869 30.291L34.8563 33.3607C34.0418 29.6536 30.864 26.8184 26.9783 26.5002V22.1144C27.2134 22.0576 27.443 21.9678 27.6581 21.8438L32.018 19.3317L31.9518 23.7645C31.9439 24.2386 32.4643 24.5354 32.8715 24.2891L36.2986 22.1826C36.4765 22.0727 36.5847 21.8792 36.5847 21.6709L36.5799 16.7029L40.7898 14.2778ZM35.3706 17.4004L35.3742 21.3334L33.1754 22.6848L33.2381 18.6295L35.3706 17.4004ZM8.63933 19.0482C8.30689 19.0495 8.0377 19.3173 8.03642 19.6481C8.03511 19.9807 8.30505 20.2513 8.63933 20.2526H10.7512V21.4664H11.9618V20.2526H15.5805C15.9152 20.2519 16.1859 19.9811 16.1846 19.6481C16.1833 19.3169 15.9134 19.0489 15.5805 19.0482H8.63933ZM5.60764 22.6707C5.2715 22.6694 4.99869 22.9408 5 23.2752C5.00066 23.6082 5.2729 23.8775 5.60764 23.8762H10.7512V25.0935H11.9618V23.8762H17.1587C17.4915 23.8749 17.7609 23.6064 17.7616 23.2752C17.7629 22.9426 17.4929 22.672 17.1587 22.6707H5.60764ZM26.2503 27.6716C30.4548 27.6716 33.8505 31.0511 33.8505 35.2342C33.8505 39.4172 30.4548 42.7955 26.2503 42.7955C22.0458 42.7955 18.6501 39.4172 18.6501 35.2342C18.6501 31.0511 22.0458 27.6716 26.2503 27.6716ZM26.3886 30.3567C26.0557 30.358 25.7863 30.6265 25.7857 30.9577V35.607L21.3265 37.5006C21.0192 37.632 20.8773 37.9865 21.0096 38.2921C21.1417 38.5972 21.4972 38.7382 21.8041 38.6073L26.6297 36.5585C26.8531 36.4631 26.9974 36.244 26.9962 36.0022V30.9578C26.9956 30.6247 26.7234 30.3554 26.3886 30.3567Z"
        fill="#FE4F23" stroke="white" stroke-width="0.3" />
</svg>