<svg xmlns="http://www.w3.org/2000/svg" width="48" height="48" viewBox="0 0 48 48" fill="none">
    <path
        d="M24 31.8837C31.4712 31.8837 37.5494 25.8429 37.5494 18.4179C37.5494 10.9928 31.4712 4.9521 24 4.9521C16.5288 4.9521 10.4505 10.9928 10.4505 18.4179C10.4505 25.8429 16.5288 31.8837 24 31.8837ZM24 5.63781C31.0931 5.63781 36.8637 11.371 36.8637 18.418C36.8637 25.4649 31.0931 31.198 24 31.198C16.9069 31.198 11.1363 25.4649 11.1363 18.4179C11.1363 11.3709 16.9069 5.63781 24 5.63781ZM17.3966 27.3022C17.3505 27.4433 17.4004 27.5981 17.5202 27.6857C17.6403 27.7732 17.8029 27.7737 17.9232 27.6868L24 23.2997L30.0768 27.6868C30.1367 27.7301 30.2071 27.7517 30.2775 27.7517C30.3485 27.7517 30.4194 27.7297 30.4797 27.6857C30.5995 27.5982 30.6494 27.4434 30.6033 27.3022L28.2834 20.2073L34.3578 15.8219C34.4784 15.7349 34.5291 15.5801 34.4833 15.4385C34.4376 15.2969 34.3059 15.201 34.1571 15.201H26.6463L24.3259 8.10449C24.2798 7.96349 24.1483 7.86818 24 7.86818C23.8516 7.86818 23.7201 7.96349 23.6741 8.10449L21.3536 15.201H13.8429C13.6941 15.201 13.5624 15.2969 13.5166 15.4385C13.4709 15.58 13.5216 15.7349 13.6421 15.8219L19.7166 20.2073L17.3966 27.3022ZM14.9035 15.8868H21.6022C21.7505 15.8868 21.8821 15.7915 21.9281 15.6505L24 9.31435L26.0719 15.6506C26.1179 15.7916 26.2494 15.8869 26.3977 15.8869H33.0965L27.6789 19.798C27.5581 19.8854 27.5074 20.0409 27.5538 20.1826L29.6242 26.5144L24.2007 22.5989C24.1408 22.5557 24.0703 22.534 24 22.534C23.9296 22.534 23.8591 22.5556 23.7992 22.5989L18.3758 26.5144L20.4462 20.1826C20.4926 20.0408 20.4419 19.8853 20.321 19.798L14.9035 15.8868ZM7.66672 42.1169L12.3685 40.2951L12.8118 45.2878C12.8248 45.4345 12.9303 45.5566 13.0736 45.5909C13.1001 45.5972 13.1269 45.6003 13.1534 45.6003C13.2698 45.6003 13.3805 45.5409 13.4442 45.4391L20.627 33.94C20.9448 33.9098 21.2564 33.819 21.5455 33.6683C21.7928 33.5396 22.096 33.5799 22.3001 33.7693C22.763 34.1989 23.3668 34.4354 24.0001 34.4354C24.5947 34.4354 25.1705 34.2238 25.6216 33.8395C25.8386 33.6545 26.1335 33.6167 26.3907 33.7406C26.7086 33.8935 27.0535 33.9757 27.4018 33.9859L34.556 45.4392C34.6196 45.541 34.7304 45.6004 34.8468 45.6004C34.8733 45.6004 34.9001 45.5973 34.9266 45.591C35.07 45.5567 35.1753 45.4346 35.1884 45.2879L35.6317 40.2952L40.3335 42.117C40.471 42.1703 40.6275 42.1296 40.7215 42.0157C40.8156 41.902 40.8263 41.7408 40.7482 41.6156L33.7822 30.4641C34.3917 30.4287 34.9629 30.175 35.3959 29.7447C35.817 29.3262 36.0739 28.771 36.1193 28.1813C36.1409 27.8997 36.3216 27.6671 36.5907 27.5742C37.1523 27.3804 37.6266 26.9921 37.9264 26.4808C38.2284 25.9653 38.3337 25.3589 38.2224 24.7731C38.1697 24.4953 38.2842 24.225 38.5212 24.0677C39.0197 23.737 39.3818 23.2384 39.5409 22.6633C39.7091 22.0551 39.6394 21.4126 39.3447 20.8542C39.2161 20.6104 39.2569 20.3114 39.4461 20.11C39.8789 19.6494 40.1173 19.0484 40.1173 18.4177C40.1173 17.8257 39.9041 17.2524 39.5167 16.8035C39.3318 16.5893 39.2938 16.2985 39.4175 16.0447C39.6768 15.5123 39.7361 14.9038 39.584 14.3313C39.4309 13.7547 39.074 13.2523 38.579 12.9166C38.3435 12.7569 38.2318 12.4855 38.2875 12.2082C38.4047 11.6236 38.3059 11.016 38.0091 10.4975C37.6962 9.95095 37.1915 9.54638 36.588 9.35841C36.3245 9.27638 36.1337 9.02806 36.124 8.75446C36.1017 8.12601 35.8431 7.53518 35.3959 7.09084C34.9753 6.6729 34.4174 6.4179 33.8251 6.3729C33.5405 6.3513 33.3055 6.1719 33.2122 5.90456C33.0169 5.34596 32.626 4.87436 32.1116 4.57667C31.594 4.27702 30.985 4.17279 30.397 4.28302C30.1152 4.33573 29.8418 4.22182 29.683 3.98542C29.3502 3.49033 28.8489 3.13068 28.2709 2.97288C27.6601 2.80608 27.0151 2.87525 26.4546 3.16736C26.2073 3.29627 25.9039 3.25573 25.7 3.06648C25.2371 2.63696 24.6333 2.40039 24 2.40039C23.4054 2.40039 22.8296 2.61202 22.3785 2.99636C22.1617 3.18116 21.8671 3.21913 21.6094 3.09528C21.0748 2.83813 20.4638 2.7795 19.889 2.93019C19.3094 3.08216 18.8044 3.43659 18.4667 3.92825C18.3055 4.16293 18.0308 4.27453 17.7497 4.21856C17.1628 4.10242 16.5527 4.20047 16.032 4.49473C15.4819 4.8057 15.0746 5.30756 14.8855 5.90773C14.8029 6.16924 14.552 6.35867 14.2754 6.36844C13.6443 6.39064 13.0508 6.64727 12.604 7.0911C12.1829 7.50964 11.926 8.06481 11.8807 8.65452C11.859 8.93609 11.6784 9.16872 11.4093 9.26164C10.8477 9.45543 10.3733 9.84372 10.0736 10.3549C9.77152 10.8704 9.66626 11.4769 9.77752 12.0627C9.83023 12.3405 9.71572 12.6107 9.47872 12.768C8.98029 13.0986 8.61823 13.5974 8.45906 14.1725C8.29089 14.7807 8.36058 15.4232 8.65517 15.9815C8.78383 16.2252 8.74303 16.5243 8.55386 16.7256C8.121 17.1863 7.88263 17.7873 7.88263 18.418C7.88263 19.01 8.09589 19.5832 8.48323 20.0321C8.66812 20.2464 8.70617 20.5372 8.58249 20.791C8.32312 21.3233 8.26389 21.9319 8.41595 22.5044C8.56903 23.081 8.92595 23.5834 9.42094 23.9191C9.6564 24.0788 9.76817 24.3502 9.71246 24.6274C9.5952 25.2122 9.69403 25.8197 9.99086 26.3381C10.3037 26.8847 10.8085 27.2893 11.4119 27.4773C11.6754 27.5593 11.8662 27.8076 11.876 28.0812C11.8983 28.7097 12.1569 29.3005 12.604 29.7448C13.0247 30.1628 13.5825 30.4178 14.1748 30.4628C14.1885 30.4638 14.2015 30.467 14.2149 30.4687L7.25203 41.6155C7.17386 41.7407 7.18458 41.9019 7.27869 42.0157C7.37272 42.1295 7.52906 42.1702 7.66672 42.1169ZM35.4542 39.491C35.3539 39.4522 35.2409 39.4627 35.1492 39.5196C35.0578 39.5765 34.9983 39.6731 34.9888 39.7804L34.5956 44.2084L28.1521 33.8929C28.714 33.7352 29.2036 33.3875 29.5332 32.9076C29.6945 32.6729 29.9696 32.5615 30.2502 32.6174C30.8371 32.7335 31.4472 32.6355 31.968 32.3412C32.5181 32.0302 32.9253 31.5284 33.1145 30.9282C33.1297 30.8797 33.1525 30.8348 33.1785 30.792L39.6208 41.1055L35.4542 39.491ZM13.0873 29.2583C12.7641 28.9372 12.5773 28.5105 12.5611 28.0567C12.5409 27.4882 12.1609 26.9922 11.6157 26.8224C11.1783 26.6862 10.8125 26.3932 10.5859 25.9974C10.3714 25.6229 10.3 25.1842 10.3846 24.7623C10.4938 24.2179 10.2666 23.6641 9.80563 23.3516C9.44743 23.1087 9.18926 22.7452 9.0786 22.3284C8.96889 21.915 9.01157 21.4756 9.19877 21.0912C9.44074 20.5944 9.36369 20.0028 9.00223 19.5841C8.72229 19.2597 8.56826 18.8455 8.56826 18.4179C8.56826 17.9624 8.74063 17.5282 9.05349 17.1952C9.44314 16.7806 9.52672 16.1642 9.26152 15.6614C9.04877 15.2581 8.99846 14.7942 9.11992 14.3551C9.23495 13.9393 9.49689 13.5786 9.85757 13.3393C10.3217 13.0315 10.5547 12.4801 10.4511 11.9347C10.3707 11.5119 10.4468 11.074 10.6651 10.7016C10.8821 10.3314 11.2258 10.0502 11.6328 9.90972C12.1563 9.72903 12.522 9.25692 12.5643 8.70698C12.597 8.28124 12.7827 7.88001 13.0873 7.57744C13.411 7.25575 13.8416 7.06975 14.2995 7.05364C14.8701 7.0335 15.3685 6.65584 15.5394 6.11387C15.6763 5.6799 15.971 5.31681 16.3695 5.09164C16.7476 4.87796 17.1904 4.8069 17.6165 4.89116C18.162 4.99924 18.7179 4.77373 19.032 4.31644C19.2765 3.96047 19.6427 3.70367 20.063 3.59345C20.4805 3.48416 20.9243 3.5265 21.3122 3.71319C21.8104 3.95276 22.4032 3.87622 22.8234 3.51827C23.1504 3.23962 23.5682 3.0861 24 3.0861C24.4597 3.0861 24.8979 3.25762 25.2337 3.56927C25.6497 3.95525 26.2678 4.03813 26.7715 3.77559C27.1783 3.56353 27.6466 3.5133 28.0903 3.6345C28.5095 3.74902 28.8729 4.0095 29.1138 4.36804C29.4229 4.82841 29.976 5.05959 30.5232 4.95724C30.95 4.87727 31.3923 4.95287 31.768 5.17041C32.1407 5.38607 32.4235 5.7273 32.5648 6.1311C32.7466 6.65155 33.2209 7.01507 33.7732 7.0569C34.203 7.08955 34.6075 7.27444 34.9126 7.57752C35.2358 7.89869 35.4226 8.32538 35.4388 8.77915C35.459 9.34761 35.839 9.84363 36.3841 10.0134C36.8216 10.1496 37.1873 10.4426 37.414 10.8384C37.6284 11.2129 37.6998 11.6516 37.6152 12.0736C37.506 12.618 37.7333 13.1717 38.1942 13.4843C38.5524 13.7273 38.8106 14.0907 38.9213 14.5075C39.031 14.9209 38.9883 15.3603 38.8011 15.7447C38.5591 16.2414 38.6363 16.833 38.9976 17.2518C39.2776 17.5762 39.4316 17.9903 39.4316 18.418C39.4316 18.8734 39.2592 19.3078 38.9464 19.6408C38.5567 20.0554 38.4731 20.6717 38.7383 21.1744H38.7383C38.9511 21.5777 39.0014 22.0416 38.8799 22.4807C38.7649 22.8964 38.503 23.2572 38.1423 23.4964C37.6781 23.8043 37.4452 24.3556 37.5488 24.9011C37.6291 25.3239 37.5531 25.7619 37.3348 26.1342C37.1177 26.5044 36.7741 26.7857 36.3671 26.9261C35.8435 27.1068 35.4779 27.5789 35.4356 28.1289C35.4029 28.5546 35.2171 28.9557 34.9126 29.2584C34.5889 29.5801 34.1584 29.7661 33.7004 29.7822C33.1297 29.8023 32.6314 30.1799 32.4605 30.722C32.3236 31.1559 32.0288 31.519 31.6303 31.7442C31.2526 31.9579 30.81 32.0291 30.3834 31.9447C29.8376 31.8367 29.2819 32.0621 28.9679 32.5194C28.7233 32.8754 28.3572 33.1322 27.9368 33.2424C27.5195 33.3519 27.0757 33.3093 26.6877 33.1227C26.1896 32.8832 25.5967 32.9596 25.1766 33.3176C24.8495 33.5963 24.4315 33.7497 23.9998 33.7497C23.54 33.7497 23.1019 33.5782 22.7661 33.2666C22.5121 33.0309 22.1826 32.9082 21.8499 32.9082C21.6379 32.9082 21.4244 32.9581 21.2283 33.0602C20.8214 33.2723 20.3528 33.3224 19.9094 33.2012C19.4903 33.0868 19.1269 32.8263 18.886 32.4678C18.5768 32.0073 18.0234 31.7759 17.4765 31.8786C17.0498 31.9588 16.6076 31.883 16.2318 31.6654C15.8591 31.4498 15.5762 31.1085 15.435 30.7047C15.2532 30.1843 14.7788 29.8208 14.2266 29.7789C13.797 29.7463 13.3923 29.5614 13.0873 29.2583ZM14.766 30.8807C14.7733 30.8974 14.7817 30.9135 14.7878 30.931C14.983 31.4896 15.374 31.9612 15.8883 32.2589C16.406 32.5586 17.015 32.6628 17.603 32.5526C17.8846 32.4999 18.1582 32.6137 18.317 32.8502C18.6497 33.3452 19.1511 33.7049 19.729 33.8627C19.7686 33.8735 19.8085 33.8833 19.8483 33.8921L13.4043 44.2083L13.0112 39.7803C13.0017 39.673 12.9422 39.5764 12.8507 39.5195C12.7593 39.4625 12.6462 39.4521 12.5457 39.491L8.37926 41.1055L14.766 30.8807Z"
        fill="#FE4F23" />
</svg>